<svg width="264" height="56" viewBox="0 0 264 56" fill="none" xmlns="http://www.w3.org/2000/svg">
<g clip-path="url(#clip0_1_234)">
<path d="M70.7303 18.5957C70.3713 19.4639 69.0355 18.8821 69.4107 18.0292C72.2363 11.385 72.1774 4.7884 72.0023 2.11799C71.9873 1.88283 71.7597 1.72274 71.5332 1.78277C65.7485 3.32624 61.0892 6.31436 57.3657 10.8609C56.3112 12.2155 57.7609 13.7478 57.7609 13.7478C57.6971 13.7277 55.2255 12.961 55.168 12.9422L55.1718 12.936C54.7703 12.7834 54.4751 12.3068 54.8015 11.8566C59.1317 5.70773 65.0667 1.74401 72.44 0.0754566C72.8353 -0.0221041 73.258 0.27183 73.3068 0.677083C73.3594 1.03981 74.5288 9.65895 70.7303 18.5957ZM69.8347 4.36939C66.0448 6.0692 63.9835 7.75275 62.4438 9.37751L65.6296 9.7415L61.2318 11.3788L64.7603 11.9954L61.0367 13.3813L63.5884 13.9216L61.4669 14.8146C61.5758 14.8797 67.3331 17.1862 67.3331 17.1862C69.0642 13.3875 70.1499 7.51636 70.27 4.65957C70.2799 4.43068 70.0423 4.27559 69.8334 4.36814L69.8347 4.36939ZM28.7252 0.0754566C28.3301 -0.0221041 27.906 0.27183 27.8572 0.677083C27.806 1.03981 26.6376 9.65895 30.4363 18.5957C30.7953 19.4639 32.1311 18.8821 31.7547 18.0292C28.9304 11.3863 28.9892 4.7884 29.163 2.11799C29.178 1.88283 29.4069 1.72274 29.6334 1.78277C35.4169 3.32624 40.0761 6.31436 43.7997 10.8609C44.8554 12.2155 43.4057 13.7478 43.4057 13.7478C43.4695 13.7277 45.9397 12.961 45.9986 12.9422L45.9936 12.936C46.395 12.7834 46.6903 12.3068 46.3638 11.8566C42.0335 5.70773 36.0986 1.74401 28.7252 0.0754566ZM36.4064 11.9954L39.9335 11.38L35.5358 9.74274L38.7227 9.37751C37.1818 7.75275 35.1205 6.07046 31.3306 4.36939C31.123 4.27683 30.8853 4.43318 30.894 4.66083C31.0155 7.5176 32.1011 13.3875 33.8309 17.1874C33.8309 17.1874 39.5895 14.881 39.6971 14.8159L37.577 13.9229L40.1274 13.3825L36.405 11.9967L36.4064 11.9954Z" fill="#475CD6"/>
<path fill-rule="evenodd" clip-rule="evenodd" d="M234.905 39.3646C237.402 41.6695 240.892 42.8219 245.373 42.8219C249.871 42.8219 253.304 42.1176 255.673 40.709C258.058 39.3006 259.25 37.2197 259.25 34.4667C259.25 34.0505 259.107 33.7064 258.818 33.4343C258.547 33.1462 258.194 33.0022 257.763 33.0022H254.184C253.097 33.0022 252.176 33.5944 251.424 34.7788C250.478 36.2834 248.782 37.0357 246.333 37.0357C243.9 37.0357 242.188 36.4194 241.196 35.187C240.22 33.9545 239.731 31.9538 239.731 29.1846C239.731 26.4156 240.203 24.4229 241.147 23.2064C242.108 21.9739 243.78 21.3577 246.165 21.3577C248.566 21.3577 250.239 22.1099 251.183 23.6145C251.936 24.783 252.856 25.3672 253.945 25.3672H257.522C257.954 25.3672 258.306 25.2312 258.578 24.9591C258.866 24.687 259.011 24.3349 259.011 23.9026C259.011 21.1496 257.819 19.0689 255.432 17.6602C253.064 16.2518 249.663 15.5475 245.229 15.5475C240.811 15.5475 237.362 16.708 234.882 19.0288C232.4 21.3337 231.16 24.727 231.16 29.2087C231.16 33.6743 232.408 37.0597 234.905 39.3646ZM231.903 15.83C235.413 12.5507 240.05 11.1768 245.229 11.1768C250.015 11.1768 254.325 11.9178 257.661 13.9007C261.364 16.0898 263.382 19.5944 263.382 23.9026C263.382 25.3979 262.839 26.9217 261.625 28.0933C261.174 28.5339 260.68 28.8766 260.164 29.1323C260.792 29.4112 261.385 29.8112 261.909 30.3436C263.059 31.476 263.621 32.9547 263.621 34.4667C263.621 38.775 261.605 42.2796 257.902 44.4687C254.557 46.456 250.209 47.1926 245.373 47.1926C240.151 47.1926 235.475 45.8385 231.941 42.5761C228.289 39.2052 226.789 34.4912 226.789 29.2087C226.789 23.9256 228.272 19.2054 231.903 15.83ZM251.294 29.2368C249.649 28.5792 248.389 27.347 247.509 25.9806L247.495 25.9594L247.482 25.9381C247.48 25.9366 247.479 25.9353 247.479 25.9342C247.469 25.9286 247.453 25.9196 247.428 25.9081C247.301 25.8509 246.93 25.7285 246.165 25.7285C245.325 25.7285 244.852 25.8402 244.634 25.9211C244.605 25.9316 244.582 25.9409 244.564 25.9487C244.516 26.0422 244.426 26.2478 244.338 26.6211C244.202 27.1949 244.101 28.0293 244.101 29.1846C244.101 30.3314 244.205 31.158 244.343 31.7259C244.437 32.1096 244.533 32.3176 244.583 32.4111C244.609 32.4239 244.649 32.441 244.704 32.4609C244.956 32.5515 245.462 32.665 246.333 32.665C247.133 32.665 247.528 32.5392 247.672 32.4759C247.698 32.4642 247.715 32.4548 247.726 32.4485L247.728 32.4453L247.734 32.4355C248.566 31.1259 249.75 29.9256 251.294 29.2368Z" fill="white"/>
<path fill-rule="evenodd" clip-rule="evenodd" d="M215.848 5.11129L215.874 5.08596C217.371 3.58839 219.267 3.06152 221.004 3.06152H223.982C225.722 3.06152 227.586 3.5978 229.064 5.06158C230.594 6.55811 231.114 8.47122 231.114 10.1933V11.0096C231.114 12.299 230.819 13.6576 230.071 14.8765C230.718 15.8598 231.017 16.9813 231.017 18.0923V40.877C231.017 42.3722 230.476 43.8958 229.261 45.0676C228.105 46.1997 226.636 46.7123 225.182 46.7123H219.805C218.368 46.7123 216.853 46.2197 215.657 45.024C214.682 44.0477 214.174 42.858 214.021 41.673C214.21 41.4288 214.306 41.1636 214.306 40.877V38.308C214.306 37.9262 214.194 37.607 213.969 37.3501V18.0923C213.969 17.0043 214.251 15.8706 214.91 14.8647C214.165 13.6488 213.873 12.2948 213.873 11.0096V10.1933C213.873 8.48465 214.383 6.62611 215.823 5.13703L215.848 5.11129ZM218.533 12.3907C218.649 12.6276 218.801 12.8395 218.988 13.0264C219.222 13.2596 219.494 13.438 219.805 13.5616C220.155 13.701 220.555 13.7707 221.004 13.7707H223.982C224.435 13.7707 224.835 13.7025 225.182 13.5663C225.498 13.4426 225.77 13.2626 225.999 13.0264C226.185 12.8395 226.338 12.6277 226.454 12.3909C226.647 11.9989 226.743 11.5385 226.743 11.0096V10.1933C226.743 9.32898 226.495 8.65672 225.999 8.17654C225.502 7.68035 224.83 7.43226 223.982 7.43226H221.004C220.141 7.43226 219.461 7.68035 218.964 8.17654C218.484 8.67272 218.244 9.34498 218.244 10.1933V11.0096C218.244 11.5384 218.341 11.9987 218.533 12.3907ZM226.238 17.0599C225.966 16.7717 225.614 16.6278 225.182 16.6278H219.805C219.388 16.6278 219.036 16.7638 218.748 17.0359C218.565 17.2196 218.442 17.4399 218.383 17.6966C218.354 17.82 218.339 17.952 218.339 18.0923V40.877C218.339 41.3092 218.476 41.6613 218.748 41.9334C219.02 42.2054 219.372 42.3415 219.805 42.3415H225.182C225.599 42.3415 225.943 42.2054 226.215 41.9334C226.503 41.6613 226.647 41.3092 226.647 40.877V18.0923C226.647 17.9542 226.631 17.8239 226.601 17.7016C226.541 17.4556 226.421 17.2417 226.238 17.0599Z" fill="white"/>
<path fill-rule="evenodd" clip-rule="evenodd" d="M211.927 36.8438H212.815C213.248 36.8438 213.599 36.9798 213.872 37.2519C214.16 37.524 214.304 37.8761 214.304 38.3083V40.8773C214.304 41.2294 214.16 41.5496 213.872 41.8376C213.599 42.1097 213.248 42.2778 212.815 42.3418C211.183 42.6619 209.053 42.822 206.428 42.822C199.546 42.822 196.105 39.2207 196.105 32.018V9.40129C196.105 8.96912 196.242 8.61699 196.514 8.34488C196.802 8.05678 197.153 7.91272 197.569 7.91272H202.948C203.363 7.91272 203.707 8.05678 203.981 8.34488C204.267 8.61699 204.412 8.96912 204.412 9.40129V17.4204H211.11C211.527 17.4204 211.871 17.5564 212.143 17.8285C212.431 18.1006 212.575 18.4527 212.575 18.8849V21.742C212.575 22.1741 212.431 22.5262 212.143 22.7985C211.871 23.0705 211.527 23.2066 211.11 23.2066H204.412V32.018C204.412 33.6506 204.796 34.9149 205.565 35.8114C206.333 36.6916 207.357 37.1319 208.638 37.1319L211.927 36.8438ZM208.836 32.727L211.736 32.4731H212.815C214.233 32.4731 215.73 32.9536 216.918 34.1176C217.59 34.765 218.054 35.5199 218.337 36.3181V40.8773C218.337 41.2267 218.426 41.5238 218.605 41.7687C218.397 43.0617 217.755 44.1355 216.962 44.9283C215.973 45.9181 214.767 46.4481 213.577 46.6464C211.572 47.0314 209.159 47.1927 206.428 47.1927C202.262 47.1927 198.346 46.0924 195.526 43.1405C192.741 40.2258 191.734 36.2446 191.734 32.018V9.40129C191.734 7.96571 192.227 6.45003 193.423 5.25431C194.549 4.1271 196.022 3.54199 197.569 3.54199H202.948C204.46 3.54199 205.939 4.10438 207.072 5.25461C208.254 6.42032 208.783 7.92473 208.783 9.40129V13.0496H211.11C212.564 13.0496 214.033 13.5622 215.19 14.6944C216.404 15.8662 216.945 17.3898 216.945 18.8849V21.742C216.945 23.2372 216.404 24.7609 215.19 25.9325C214.033 27.0647 212.564 27.5773 211.11 27.5773H208.783V32.018C208.783 32.3403 208.808 32.5696 208.836 32.727Z" fill="white"/>
<path fill-rule="evenodd" clip-rule="evenodd" d="M177.688 15.5475C169.349 15.5475 165.179 18.1324 165.179 23.3025C165.179 25.1432 165.804 26.6798 167.052 27.9122C167.977 28.8242 169.041 29.5521 170.244 30.0959C170.26 30.1033 170.277 30.1107 170.293 30.1181C170.701 30.3001 171.126 30.4612 171.566 30.6012C172.645 30.9317 173.727 31.2326 174.811 31.5041C175.513 31.6796 176.215 31.8429 176.92 31.9938C178.115 32.2392 179.186 32.5097 180.133 32.805C180.145 32.8085 180.156 32.8122 180.168 32.8159C180.627 32.96 181.057 33.1102 181.458 33.2662C182.706 33.7464 183.33 34.3466 183.33 35.067C183.33 36.2774 182.194 37.0111 179.918 37.268C179.911 37.2687 179.905 37.2695 179.898 37.2704C179.892 37.2709 179.887 37.2716 179.881 37.2721C179.834 37.2775 179.786 37.2824 179.737 37.2873C179.17 37.3436 178.535 37.3718 177.833 37.3718C175.527 37.3718 173.984 36.8916 173.198 35.9313C173.074 35.7756 172.944 35.6323 172.809 35.5016C172.122 34.8327 171.313 34.488 170.382 34.4676C170.367 34.4673 170.352 34.4671 170.337 34.4669C170.322 34.4668 170.308 34.4667 170.293 34.4667H166.716C166.284 34.4667 165.924 34.6108 165.636 34.8988C165.364 35.1709 165.227 35.5232 165.227 35.9553C165.227 40.533 169.629 42.8219 178.432 42.8219C187.237 42.8219 191.637 40.2368 191.637 35.067C191.637 33.1942 191.013 31.6496 189.765 30.4332C188.866 29.5346 187.824 28.8146 186.636 28.2733C186.365 28.1505 186.088 28.0368 185.804 27.9323C185.622 27.8659 185.439 27.8031 185.252 27.7441C183.801 27.2871 182.347 26.8992 180.887 26.5806C180.556 26.5088 180.227 26.4404 179.898 26.3756C178.659 26.1191 177.55 25.8354 176.568 25.5246C176.568 25.5244 176.569 25.5247 176.568 25.5246C176.142 25.3893 175.737 25.2487 175.359 25.1032C174.127 24.623 173.511 24.0227 173.511 23.3025C173.511 22.0046 174.642 21.2549 176.902 21.0532C176.908 21.0528 176.912 21.0523 176.917 21.0518C176.924 21.0512 176.931 21.0506 176.939 21.05C176.954 21.0487 176.971 21.0473 176.987 21.0459C177.379 21.0137 177.805 20.9976 178.264 20.9976C180.57 20.9976 182.115 21.4857 182.899 22.4622C182.931 22.503 182.965 22.543 183 22.5822C183.766 23.4625 184.7 23.9026 185.804 23.9026H189.381C189.812 23.9026 190.165 23.7666 190.437 23.4945C190.71 23.2064 190.845 22.8543 190.845 22.4381C190.845 17.8444 186.459 15.5475 177.688 15.5475ZM192.749 27.2377C193.021 27.049 193.28 26.832 193.528 26.5851L193.573 26.5409L193.615 26.4955C194.694 25.3523 195.216 23.9086 195.216 22.4381C195.216 20.5651 194.76 18.7244 193.711 17.0766C192.673 15.4466 191.214 14.252 189.584 13.3983C186.452 11.7583 182.314 11.1768 177.688 11.1768C173.209 11.1768 169.11 11.8455 166.004 13.7715C162.551 15.9115 160.809 19.3034 160.809 23.3025C160.809 26.1665 161.8 28.7767 163.808 30.8473C163.357 31.1012 162.933 31.4207 162.546 31.8083C161.349 33.004 160.856 34.5197 160.856 35.9553C160.856 37.8302 161.318 39.6719 162.374 41.3182C163.416 42.9452 164.88 44.1344 166.512 44.9831C169.648 46.6135 173.795 47.1926 178.432 47.1926C183.12 47.1926 187.353 46.5299 190.55 44.652C194.108 42.5622 196.008 39.1774 196.008 35.067C196.008 32.1222 194.982 29.4248 192.836 27.323C192.808 27.2944 192.779 27.266 192.749 27.2377Z" fill="white"/>
<path fill-rule="evenodd" clip-rule="evenodd" d="M130.823 41.2946C131.595 42.3896 132.58 43.3657 133.775 44.1988L133.788 44.2075C136.822 46.3064 140.464 47.1911 144.404 47.1926C146.95 47.2037 149.37 46.7796 151.628 45.9049C152.578 46.4677 153.63 46.7125 154.641 46.7125H159.275C160.711 46.7125 162.227 46.2198 163.422 45.0242C164.618 43.8284 165.11 42.3127 165.11 40.8772V26.0154C165.11 21.442 163.575 17.3252 159.88 14.6017C156.61 12.1757 152.551 11.1768 148.111 11.1768C143.508 11.1768 139.383 11.7587 136.261 13.4029C134.635 14.259 133.182 15.4559 132.151 17.0858C131.108 18.7323 130.655 20.5698 130.655 22.4381C130.655 23.7561 131.074 25.0525 131.938 26.1303C129.806 28.3175 128.734 31.1584 128.734 34.3706C128.734 35.2228 128.81 36.0489 128.96 36.8437H129.408C129.84 36.8437 130.192 36.9797 130.464 37.2518C130.752 37.5239 130.896 37.876 130.896 38.3081V40.8772C130.896 41.0217 130.872 41.1609 130.823 41.2946ZM135.515 23.5657C135.788 23.7903 136.122 23.9026 136.514 23.9026H140.092C141.244 23.9026 142.213 23.4225 142.997 22.4622C143.263 22.1371 143.594 21.8661 143.988 21.6494C144.778 21.2149 145.824 20.9976 147.127 20.9976C148.634 20.9976 149.793 21.2132 150.606 21.6447C150.856 21.7769 151.072 21.9294 151.256 22.102C152.04 22.8383 152.432 24.1427 152.432 26.0154H144.486C142.881 26.0154 141.416 26.1811 140.092 26.5126C138.757 26.8464 137.565 27.3484 136.514 28.0185C136.434 28.0701 136.354 28.1227 136.274 28.1764C136.232 28.2049 136.191 28.2337 136.15 28.2628C134.12 29.699 133.105 31.735 133.105 34.3706C133.105 37.0597 134.161 39.1405 136.274 40.613C138.403 42.0855 141.116 42.8219 144.413 42.8219C146.018 42.8297 147.531 42.6234 148.952 42.2031C150.03 41.8842 151.054 41.4422 152.026 40.8772C152.418 40.6491 152.802 40.401 153.176 40.1329V40.8772C153.176 41.2933 153.313 41.6455 153.585 41.9335C153.857 42.2056 154.209 42.3416 154.641 42.3416H159.275C159.707 42.3416 160.059 42.2056 160.331 41.9335C160.604 41.6614 160.739 41.3093 160.739 40.8772V26.0154C160.739 22.4461 159.588 19.8131 157.282 18.1164C154.978 16.4038 151.92 15.5475 148.111 15.5475C139.388 15.5475 135.026 17.8444 135.026 22.4381C135.026 22.8543 135.162 23.2064 135.434 23.4945C135.46 23.5193 135.487 23.543 135.515 23.5657ZM152.432 35.2109V31.4656H145.062C143.941 31.4656 143.053 31.7377 142.397 32.2818C141.757 32.8261 141.437 33.5304 141.437 34.3947C141.437 35.259 141.773 35.9713 142.445 36.5314C143.117 37.0917 144.069 37.3718 145.302 37.3718C147.38 37.3718 149.394 36.8599 151.348 35.8363C151.711 35.6457 152.073 35.4372 152.432 35.2109Z" fill="white"/>
<path fill-rule="evenodd" clip-rule="evenodd" d="M128.519 36.8438H129.407C129.839 36.8438 130.192 36.9798 130.464 37.2519C130.752 37.524 130.896 37.8761 130.896 38.3083V40.8773C130.896 41.2294 130.752 41.5496 130.464 41.8376C130.192 42.1097 129.839 42.2778 129.407 42.3418C127.775 42.6619 125.646 42.822 123.021 42.822C116.138 42.822 112.697 39.2207 112.697 32.018V9.40129C112.697 8.96912 112.833 8.61699 113.105 8.34488C113.393 8.05678 113.745 7.91272 114.162 7.91272H119.54C119.956 7.91272 120.3 8.05678 120.572 8.34488C120.86 8.61699 121.004 8.96912 121.004 9.40129V17.4204H127.703C128.119 17.4204 128.463 17.5564 128.735 17.8285C129.023 18.1006 129.167 18.4527 129.167 18.8849V21.742C129.167 22.1741 129.023 22.5262 128.735 22.7985C128.463 23.0705 128.119 23.2066 127.703 23.2066H121.004V32.018C121.004 33.6506 121.388 34.9149 122.157 35.8114C122.925 36.6916 123.949 37.1319 125.23 37.1319L128.519 36.8438ZM125.428 32.727L128.328 32.4731H129.407C130.675 32.4731 132.006 32.8573 133.123 33.7708C133.111 33.9672 133.105 34.1673 133.105 34.3708C133.105 34.3991 133.105 34.4271 133.105 34.4552C133.105 34.5064 133.106 34.5574 133.107 34.6082C133.141 36.0117 133.469 37.2452 134.094 38.3083C134.409 38.8453 134.8 39.3388 135.267 39.7889V40.8773C135.267 42.5719 134.523 43.9598 133.554 44.9283C132.564 45.9181 131.358 46.4481 130.168 46.6464C128.163 47.0314 125.75 47.1927 123.021 47.1927C118.854 47.1927 114.939 46.0924 112.118 43.1405C109.333 40.2258 108.326 36.2446 108.326 32.018V20.258L109.023 18.1406C109.168 17.7404 109.24 17.3964 109.24 17.1082C109.226 16.4818 108.921 16.1278 108.326 16.0462V9.40129C108.326 7.96571 108.819 6.45003 110.015 5.25431C111.142 4.1271 112.614 3.54199 114.162 3.54199H119.54C121.052 3.54199 122.53 4.10418 123.663 5.25399C124.846 6.41979 125.375 7.92447 125.375 9.40129V13.0496H127.703C129.155 13.0496 130.625 13.562 131.781 14.6939C132.996 15.8657 133.538 17.3895 133.538 18.8849V21.742C133.538 23.2374 132.996 24.7615 131.781 25.9332C130.625 27.065 129.155 27.5773 127.703 27.5773H125.375V32.018C125.375 32.3403 125.399 32.5696 125.428 32.727Z" fill="white"/>
<path fill-rule="evenodd" clip-rule="evenodd" d="M66.0485 17.1083C66.0644 17.3805 66.1366 17.7246 66.2645 18.1408L73.5394 40.2292C73.7634 40.8854 74.1636 41.4056 74.7398 41.7898C75.3161 42.1579 75.9322 42.3419 76.5885 42.3419H79.9738C80.0071 42.3419 80.0403 42.3415 80.0733 42.3406C80.6933 42.322 81.2843 42.1305 81.8465 41.7658C82.4387 41.3656 82.8309 40.8534 83.0229 40.2292L87.6567 25.9197L92.2664 40.2292C92.4585 40.8534 92.8508 41.3656 93.4429 41.7658C94.0052 42.1305 94.5962 42.322 95.216 42.3406C95.2492 42.3415 95.2824 42.3419 95.3156 42.3419H98.701C99.3571 42.3419 99.9734 42.1579 100.55 41.7898C101.126 41.4056 101.526 40.8854 101.75 40.2292L109.025 18.1408C109.169 17.7406 109.241 17.3965 109.241 17.1083C109.225 16.3881 108.825 16.0279 108.04 16.0279H103.575C102.822 16.0279 102.15 16.22 101.558 16.6042C100.966 16.9723 100.558 17.4845 100.334 18.1408L96.3961 31.0817L92.5066 18.1408C92.0904 16.7322 91.178 16.0279 89.7695 16.0279H85.5199C84.1273 16.0279 83.2151 16.7322 82.7829 18.1408L78.8934 31.0817L74.9559 18.1408C74.7317 17.4845 74.3236 16.9723 73.7314 16.6042C73.1392 16.22 72.4669 16.0279 71.7146 16.0279H67.2489C66.4487 16.0439 66.0485 16.4041 66.0485 17.1083ZM76.0752 12.9149C74.7364 12.0562 73.2398 11.6572 71.7146 11.6572H67.2052L67.1615 11.6581C66.2081 11.6772 64.7082 11.9062 63.4247 13.0613C62.0409 14.3067 61.6777 15.9211 61.6777 17.1083V17.2368L61.6852 17.365C61.7303 18.1298 61.9095 18.849 62.0871 19.4262L62.0998 19.4672L69.3954 41.619L69.4031 41.6415C69.9373 43.206 70.9384 44.5084 72.3153 45.4264L72.3508 45.4501L72.3866 45.473C73.6346 46.2703 75.0623 46.7128 76.5885 46.7128H79.9738C81.5386 46.7128 82.9805 46.2398 84.225 45.4327L84.2594 45.4103L84.2935 45.3874C85.6191 44.4916 86.6709 43.2032 87.1889 41.5518L87.6459 40.1403L88.0994 41.5479C88.6167 43.2012 89.6693 44.491 90.9959 45.3874L91.0299 45.4103L91.0644 45.4327C92.3089 46.2398 93.7508 46.7128 95.3156 46.7128H98.701C100.227 46.7128 101.655 46.2703 102.903 45.473L102.939 45.4501L102.974 45.4264C104.351 44.5084 105.352 43.206 105.886 41.6415L105.894 41.619L112.698 20.9593V14.0231C112.472 13.6847 112.193 13.356 111.853 13.0493C110.55 11.8773 109.027 11.6572 108.04 11.6572H103.575C102.05 11.6572 100.553 12.0561 99.2147 12.9146C97.9708 13.6974 97.017 14.7974 96.4304 16.1304C95.9904 15.0344 95.2835 13.9475 94.181 13.0963C92.802 12.0319 91.2199 11.6572 89.7695 11.6572H85.5199C84.0644 11.6572 82.491 12.0384 81.1205 13.0963C80.0157 13.9491 79.3057 15.0388 78.8611 16.135C78.2748 14.8002 77.3203 13.6986 76.0752 12.9149Z" fill="white"/>
<path fill-rule="evenodd" clip-rule="evenodd" d="M31.1758 36.1361C31.6047 39.4177 33.2567 42.2142 36.1039 44.1988L36.1166 44.2075C39.1507 46.3064 42.7933 47.1911 46.732 47.1926C49.2784 47.2037 51.6991 46.7796 53.9558 45.9049C54.9069 46.4677 55.9585 46.7125 56.9701 46.7125H61.6039C63.0395 46.7125 64.5552 46.2198 65.7509 45.0242C66.9465 43.8284 67.4392 42.3127 67.4392 40.8772V26.0154C67.4392 21.4427 65.9044 17.3263 62.2107 14.6028C58.9407 12.1761 54.88 11.1768 50.4396 11.1768C45.8369 11.1768 41.7116 11.7587 38.5894 13.4029C36.9636 14.259 35.5111 15.4559 34.4794 17.0858C33.4372 18.7323 32.9839 20.5698 32.9839 22.4381C32.9839 23.7561 33.4029 25.0525 34.2671 26.1303C33.5479 26.8681 32.9492 27.6803 32.4717 28.5559C32.4777 28.7787 32.4807 29.0043 32.4807 29.2327C32.4807 31.1389 32.2616 32.8515 31.8232 34.3706C31.644 34.9914 31.4282 35.58 31.1758 36.1361ZM37.8435 23.5657C38.1172 23.7903 38.4505 23.9026 38.8433 23.9026H42.4206C43.573 23.9026 44.5413 23.4225 45.3256 22.4622C45.5921 22.1371 45.9224 21.8661 46.3165 21.6494C47.1064 21.2149 48.1527 20.9976 49.4553 20.9976C50.9624 20.9976 52.1224 21.2132 52.9353 21.6447C53.1845 21.7769 53.401 21.9294 53.5848 22.102C54.3691 22.8383 54.7612 24.1427 54.7612 26.0154H46.8143C45.2098 26.0154 43.7452 26.1811 42.4206 26.5126C41.0861 26.8464 39.8936 27.3484 38.8433 28.0185C38.7623 28.0701 38.6822 28.1227 38.6032 28.1764C38.5612 28.2049 38.5197 28.2337 38.4786 28.2628C36.4488 29.699 35.434 31.735 35.434 34.3706C35.434 37.0597 36.4903 39.1405 38.6032 40.613C40.732 42.0855 43.445 42.8219 46.7423 42.8219C48.347 42.8297 49.8597 42.6234 51.2805 42.2031C52.3583 41.8842 53.3831 41.4422 54.3549 40.8772C54.7471 40.6491 55.1307 40.401 55.5056 40.1329V40.8772C55.5056 41.2933 55.6416 41.6455 55.9137 41.9335C56.1858 42.2056 56.5379 42.3416 56.9701 42.3416H61.6039C62.036 42.3416 62.3881 42.2056 62.6603 41.9335C62.9324 41.6614 63.0685 41.3093 63.0685 40.8772V26.0154C63.0685 22.4461 61.916 19.8131 59.6111 18.1164C57.3062 16.4038 54.249 15.5475 50.4396 15.5475C41.7163 15.5475 37.3546 17.8444 37.3546 22.4381C37.3546 22.8543 37.4907 23.2064 37.7627 23.4945C37.7891 23.5193 37.816 23.543 37.8435 23.5657ZM54.7612 35.2109V31.4656H47.3905C46.2701 31.4656 45.3818 31.7377 44.7255 32.2818C44.0851 32.8261 43.7651 33.5304 43.7651 34.3947C43.7651 35.259 44.1013 35.9713 44.7734 36.5314C45.4457 37.0917 46.3981 37.3718 47.6305 37.3718C49.7085 37.3718 51.7238 36.8599 53.6766 35.8363C54.0403 35.6457 54.4018 35.4372 54.7612 35.2109Z" fill="white"/>
<path fill-rule="evenodd" clip-rule="evenodd" d="M4.36878 17.5163V48.9682C4.36878 49.4004 4.50483 49.7525 4.77694 50.0246C5.06505 50.3128 5.41718 50.4569 5.83334 50.4569H11.2114C11.6275 50.4569 11.9717 50.3128 12.2438 50.0246C12.5319 49.7525 12.6759 49.4004 12.6759 48.9682V41.5974C14.2339 42.0879 15.6909 42.4311 17.0466 42.6268C17.9473 42.7569 18.8033 42.8219 19.6146 42.8219C23.5521 42.8219 26.6812 41.6534 29.0022 39.3165C31.3231 36.9797 32.4835 33.6183 32.4835 29.2327C32.4835 24.831 31.3631 21.4538 29.1221 19.1008C26.8813 16.7319 24.0883 15.5475 20.743 15.5475C19.1171 15.5475 17.5878 15.7593 16.1547 16.1827C15.0648 16.5047 14.0307 16.9492 13.0523 17.5163C12.6703 17.7377 12.2967 17.9778 11.9317 18.2365V17.5163C11.9317 17.0841 11.7876 16.7319 11.4995 16.4598C11.2274 16.1717 10.8833 16.0276 10.4671 16.0276H5.83334C5.41718 16.0276 5.06505 16.1717 4.77694 16.4598C4.50483 16.7319 4.36878 17.0841 4.36878 17.5163ZM13.4708 12.4828C12.5561 11.9294 11.5197 11.6569 10.4671 11.6569H5.83334C4.28576 11.6569 2.81358 12.2421 1.68636 13.3693C0.490636 14.5649 -0.00195312 16.0806 -0.00195312 17.5163V48.9682C-0.00195312 50.4039 0.490636 51.9195 1.68636 53.1152C2.81358 54.2424 4.28576 54.8276 5.83334 54.8276H11.2114C12.7236 54.8276 14.2024 54.2653 15.3349 53.1153C16.5182 51.9495 17.0466 50.445 17.0466 48.9682V47.035C17.919 47.1386 18.7755 47.1926 19.6146 47.1926C24.4722 47.1926 28.8044 45.718 32.1034 42.3965C33.7644 40.724 34.9411 38.7557 35.7079 36.5747C35.527 35.8921 35.4366 35.1574 35.4366 34.3706C35.4366 32.576 35.9072 31.0595 36.8481 29.821C36.8522 29.6257 36.8542 29.4295 36.8542 29.2327C36.8542 24.1173 35.5443 19.5097 32.2924 16.092C29.2029 12.8287 25.252 11.1768 20.743 11.1768C18.178 11.1768 15.7406 11.6053 13.4708 12.4828ZM22.5436 35.163C23.472 33.9145 23.9363 31.9217 23.9363 29.1846C23.9363 26.4476 23.4961 24.4629 22.6158 23.2305C21.7515 21.9819 20.4469 21.3577 18.7022 21.3577C16.9736 21.3577 14.9648 22.078 12.6759 23.5185V36.0513C14.7407 36.7075 16.4773 37.0357 17.886 37.0357C20.0788 37.0357 21.6314 36.4115 22.5436 35.163ZM17.0466 32.6071C17.371 32.6475 17.6498 32.665 17.886 32.665C18.5864 32.665 18.9381 32.5629 19.0635 32.5127C19.1883 32.298 19.5655 31.4148 19.5655 29.1846C19.5655 28.0327 19.4712 27.1856 19.3391 26.5897C19.2742 26.2975 19.206 26.0918 19.15 25.9555C19.0956 25.8227 19.0591 25.7708 19.0591 25.7708L19.0486 25.7561C18.9861 25.7434 18.8755 25.7285 18.7022 25.7285C18.3729 25.7285 17.831 25.8175 17.0466 26.138V32.6071Z" fill="white"/>
<path d="M245.371 42.8217C240.89 42.8217 237.4 41.6692 234.903 39.3643C232.406 37.0594 231.158 33.6742 231.158 29.2085C231.158 24.7267 232.398 21.3334 234.88 19.0285C237.36 16.7077 240.811 15.5472 245.228 15.5472C249.661 15.5472 253.062 16.2515 255.432 17.6601C257.817 19.0685 259.009 21.1494 259.009 23.9024C259.009 24.3346 258.864 24.6867 258.576 24.9588C258.304 25.231 257.952 25.367 257.52 25.367H253.943C252.855 25.367 251.934 24.7827 251.181 23.6144C250.238 22.1098 248.565 21.3574 246.165 21.3574C243.779 21.3574 242.107 21.9737 241.147 23.2061C240.201 24.4227 239.73 26.4153 239.73 29.1845C239.73 31.9535 240.218 33.9543 241.194 35.1867C242.186 36.4193 243.899 37.0354 246.333 37.0354C248.782 37.0354 250.478 36.2832 251.422 34.7786C252.174 33.5941 253.095 33.0019 254.184 33.0019H257.761C258.192 33.0019 258.545 33.146 258.817 33.4341C259.105 33.7061 259.25 34.0503 259.25 34.4665C259.25 37.2195 258.057 39.3003 255.671 40.7089C253.303 42.1173 249.869 42.8217 245.371 42.8217Z" fill="#475CD6"/>
<path d="M218.242 11.01V10.1937C218.242 9.34535 218.483 8.67309 218.962 8.1769C219.459 7.68071 220.139 7.43262 221.004 7.43262H223.98C224.828 7.43262 225.502 7.68071 225.997 8.1769C226.493 8.65708 226.742 9.32934 226.742 10.1937V11.01C226.742 11.8583 226.493 12.5306 225.997 13.0267C225.517 13.5229 224.845 13.771 223.98 13.771H221.004C220.156 13.771 219.482 13.5229 218.987 13.0267C218.491 12.5306 218.242 11.8583 218.242 11.01ZM218.338 40.8773V18.0927C218.338 17.6605 218.474 17.3084 218.746 17.0363C219.034 16.7641 219.387 16.6281 219.803 16.6281H225.181C225.614 16.6281 225.965 16.7722 226.238 17.0602C226.51 17.3324 226.646 17.6765 226.646 18.0927V40.8773C226.646 41.3095 226.502 41.6617 226.213 41.9338C225.942 42.2059 225.597 42.3419 225.181 42.3419H219.803C219.37 42.3419 219.019 42.2059 218.746 41.9338C218.474 41.6617 218.338 41.3095 218.338 40.8773Z" fill="#475CD6"/>
<path d="M208.637 37.1312L211.926 36.8431H212.813C213.246 36.8431 213.599 36.9792 213.871 37.2512C214.159 37.5234 214.302 37.8756 214.302 38.3077V40.8766C214.302 41.2287 214.159 41.5489 213.871 41.8371C213.599 42.1092 213.246 42.2772 212.813 42.3412C211.181 42.6614 209.053 42.8215 206.428 42.8215C199.545 42.8215 196.104 39.22 196.104 32.0173V9.40067C196.104 8.96852 196.24 8.61637 196.512 8.34428C196.8 8.05617 197.152 7.91211 197.568 7.91211H202.946C203.363 7.91211 203.707 8.05617 203.979 8.34428C204.267 8.61637 204.411 8.96852 204.411 9.40067V17.4197H211.109C211.525 17.4197 211.87 17.5558 212.141 17.8278C212.43 18.1001 212.574 18.4522 212.574 18.8843V21.7414C212.574 22.1736 212.43 22.5257 212.141 22.7978C211.87 23.0698 211.525 23.2059 211.109 23.2059H204.411V32.0173C204.411 33.6499 204.794 34.9144 205.563 35.8108C206.331 36.6911 207.355 37.1312 208.637 37.1312Z" fill="#475CD6"/>
<path d="M165.182 23.3023C165.182 18.1324 169.35 15.5474 177.69 15.5474C186.462 15.5474 190.847 17.8443 190.847 22.438C190.847 22.8541 190.711 23.2063 190.439 23.4944C190.166 23.7665 189.815 23.9026 189.382 23.9026H185.805C184.652 23.9026 183.683 23.4223 182.899 22.462C182.115 21.4857 180.571 20.9974 178.267 20.9974C175.096 20.9974 173.512 21.7657 173.512 23.3023C173.512 24.0226 174.128 24.6228 175.361 25.103C176.61 25.5832 178.122 26.0073 179.899 26.3754C181.691 26.7277 183.476 27.1838 185.253 27.744C187.03 28.3043 188.534 29.2006 189.767 30.433C191.015 31.6496 191.64 33.1941 191.64 35.0668C191.64 40.2368 187.237 42.8218 178.435 42.8218C169.63 42.8218 165.229 40.5329 165.229 35.9551C165.229 35.523 165.365 35.1709 165.636 34.8988C165.925 34.6106 166.285 34.4666 166.717 34.4666H170.295C171.447 34.4666 172.415 34.9548 173.201 35.9311C173.985 36.8916 175.529 37.3717 177.834 37.3717C181.499 37.3717 183.332 36.6034 183.332 35.0668C183.332 34.3466 182.708 33.7463 181.459 33.2662C180.227 32.7859 178.715 32.3618 176.921 31.9936C175.129 31.6095 173.344 31.1453 171.567 30.6011C169.806 30.0408 168.303 29.1446 167.054 27.912C165.806 26.6796 165.182 25.143 165.182 23.3023Z" fill="#475CD6"/>
<path d="M136.273 40.6128C134.16 39.1402 133.103 37.0594 133.103 34.3705C133.103 31.6814 134.16 29.6166 136.273 28.1761C138.401 26.7355 141.139 26.0153 144.484 26.0153H152.431C152.431 24.1426 152.038 22.838 151.254 22.1017C150.47 21.3655 149.093 20.9973 147.125 20.9973C145.172 20.9973 143.795 21.4856 142.995 22.4619C142.211 23.4222 141.242 23.9024 140.09 23.9024H136.513C136.081 23.9024 135.72 23.7664 135.432 23.4943C135.16 23.2061 135.024 22.854 135.024 22.4378C135.024 17.8442 139.386 15.5472 148.109 15.5472C151.919 15.5472 154.976 16.4036 157.28 18.1163C159.586 19.8129 160.739 22.4459 160.739 26.0153V40.8769C160.739 41.309 160.602 41.6613 160.33 41.9333C160.058 42.2054 159.706 42.3415 159.273 42.3415H154.64C154.207 42.3415 153.855 42.2054 153.583 41.9333C153.311 41.6452 153.174 41.293 153.174 40.8769V40.1326C150.646 41.9413 147.725 42.8377 144.411 42.8217C141.114 42.8217 138.401 42.0854 136.273 40.6128ZM145.06 31.4653C143.94 31.4653 143.051 31.7374 142.395 32.2817C141.755 32.8258 141.435 33.5301 141.435 34.3944C141.435 35.2588 141.771 35.971 142.443 36.5313C143.115 37.0914 144.067 37.3715 145.3 37.3715C147.766 37.3715 150.142 36.6513 152.431 35.2108V31.4653H145.06Z" fill="#475CD6"/>
<path d="M125.23 37.1317L128.519 36.8436H129.408C129.84 36.8436 130.192 36.9796 130.464 37.2517C130.752 37.5239 130.896 37.8761 130.896 38.3082V40.8771C130.896 41.2292 130.752 41.5494 130.464 41.8376C130.192 42.1097 129.84 42.2777 129.408 42.3417C127.775 42.6619 125.646 42.8219 123.021 42.8219C116.139 42.8219 112.697 39.2205 112.697 32.0178V9.40116C112.697 8.969 112.833 8.61686 113.105 8.34477C113.394 8.05665 113.746 7.9126 114.162 7.9126H119.54C119.956 7.9126 120.3 8.05665 120.572 8.34477C120.86 8.61686 121.005 8.969 121.005 9.40116V17.4202H127.703C128.119 17.4202 128.463 17.5562 128.735 17.8283C129.023 18.1005 129.168 18.4527 129.168 18.8848V21.7419C129.168 22.1741 129.023 22.5262 128.735 22.7983C128.463 23.0703 128.119 23.2064 127.703 23.2064H121.005V32.0178C121.005 33.6504 121.389 34.9149 122.157 35.8113C122.925 36.6916 123.95 37.1317 125.23 37.1317Z" fill="#475CD6"/>
<path d="M66.2649 18.1405C66.1369 17.7245 66.0648 17.3803 66.0488 17.1082C66.0488 16.404 66.449 16.0438 67.2493 16.0278H71.7151C72.4673 16.0278 73.1395 16.2199 73.7318 16.6039C74.324 16.9722 74.7321 17.4844 74.9562 18.1405L78.8937 31.0816L82.7833 18.1405C83.2154 16.7321 84.1278 16.0278 85.5203 16.0278H89.7699C91.1785 16.0278 92.0907 16.7321 92.5069 18.1405L96.3965 31.0816L100.334 18.1405C100.558 17.4844 100.966 16.9722 101.558 16.6039C102.151 16.2199 102.823 16.0278 103.575 16.0278H108.041C108.825 16.0278 109.225 16.3879 109.241 17.1082C109.241 17.3963 109.169 17.7405 109.025 18.1405L101.75 40.229C101.526 40.8853 101.126 41.4055 100.55 41.7896C99.9738 42.1577 99.3575 42.3418 98.7013 42.3418H95.3161C94.6598 42.3418 94.0356 42.1498 93.4433 41.7656C92.8511 41.3655 92.459 40.8533 92.2668 40.229L87.657 25.9196L83.0234 40.229C82.8312 40.8533 82.4391 41.3655 81.8468 41.7656C81.2546 42.1498 80.6304 42.3418 79.9741 42.3418H76.5888C75.9327 42.3418 75.3164 42.1577 74.7402 41.7896C74.1639 41.4055 73.7639 40.8853 73.5397 40.229L66.2649 18.1405Z" fill="#475CD6"/>
<path d="M38.6047 40.613C36.492 39.1403 35.4355 37.0596 35.4355 34.3706C35.4355 31.6815 36.492 29.6167 38.6047 28.1762C40.7336 26.7356 43.4706 26.0154 46.8158 26.0154H54.7629C54.7629 24.1427 54.3708 22.8382 53.5865 22.1018C52.8022 21.3656 51.4256 20.9974 49.4569 20.9974C47.5041 20.9974 46.1276 21.4857 45.3273 22.462C44.5431 23.4223 43.5747 23.9026 42.4222 23.9026H38.8449C38.4127 23.9026 38.0525 23.7665 37.7645 23.4944C37.4924 23.2063 37.3563 22.8541 37.3563 22.438C37.3563 17.8443 41.7179 15.5474 50.4412 15.5474C54.2507 15.5474 57.3079 16.4038 59.6128 18.1164C61.9177 19.8131 63.07 22.446 63.07 26.0154V40.877C63.07 41.3091 62.934 41.6614 62.6619 41.9335C62.3899 42.2056 62.0377 42.3416 61.6056 42.3416H56.9718C56.5396 42.3416 56.1875 42.2056 55.9154 41.9335C55.6432 41.6453 55.5072 41.2932 55.5072 40.877V40.1327C52.9783 41.9414 50.0572 42.8378 46.7439 42.8218C43.4466 42.8218 40.7336 42.0855 38.6047 40.613ZM47.3921 31.4654C46.2717 31.4654 45.3833 31.7375 44.727 32.2818C44.0869 32.826 43.7667 33.5302 43.7667 34.3945C43.7667 35.259 44.1028 35.9711 44.7751 36.5314C45.4474 37.0915 46.3998 37.3717 47.6322 37.3717C50.0972 37.3717 52.474 36.6514 54.7629 35.2109V31.4654H47.3921Z" fill="#475CD6"/>
<path d="M4.3689 48.968V17.516C4.3689 17.0838 4.50495 16.7317 4.77705 16.4596C5.06515 16.1714 5.4173 16.0275 5.83345 16.0275H10.4672C10.8834 16.0275 11.2275 16.1714 11.4996 16.4596C11.7877 16.7317 11.9318 17.0838 11.9318 17.516V18.2363C14.4608 16.4437 17.3979 15.5472 20.7431 15.5472C24.0884 15.5472 26.8814 16.7317 29.1224 19.1006C31.3632 21.4535 32.4836 24.8308 32.4836 29.2324C32.4836 33.6182 31.3232 36.9794 29.0023 39.3164C26.6815 41.6532 23.5522 42.8217 19.6147 42.8217C17.5819 42.8217 15.2691 42.4134 12.6761 41.5972V48.968C12.6761 49.4002 12.532 49.7523 12.2439 50.0244C11.9718 50.3125 11.6277 50.4565 11.2115 50.4565H5.83345C5.4173 50.4565 5.06515 50.3125 4.77705 50.0244C4.50495 49.7523 4.3689 49.4002 4.3689 48.968ZM12.6761 36.051C14.7409 36.7073 16.4776 37.0354 17.886 37.0354C20.0789 37.0354 21.6315 36.4112 22.5439 35.1627C23.4721 33.9143 23.9364 31.9215 23.9364 29.1845C23.9364 26.4474 23.4961 24.4627 22.6159 23.2302C21.7515 21.9818 20.447 21.3574 18.7024 21.3574C16.9737 21.3574 14.9649 22.0778 12.6761 23.5184V36.051Z" fill="#475CD6"/>
</g>
<defs>
<clipPath id="clip0_1_234">
<rect width="264" height="56" fill="white"/>
</clipPath>
</defs>
</svg>
