<svg width="20" height="20" viewBox="0 0 20 20" fill="none" xmlns="http://www.w3.org/2000/svg">
<path d="M11.0665 2.23505C11.3368 1.92956 11.7829 1.92098 12.0628 2.21621L12.0672 2.22082L18.4084 9.14359C18.6103 9.3634 18.671 9.6944 18.562 9.98209C18.5267 10.0753 18.475 10.1599 18.4101 10.2311L18.4095 10.2318L12.0696 17.1529C12.0648 17.1583 12.0599 17.1637 12.0549 17.1689C11.775 17.464 11.3289 17.4557 11.0586 17.1501C10.789 16.8454 10.7959 16.3605 11.0733 16.0651L16.2099 10.4575L1.70463 10.4575C1.31548 10.4575 1 10.1131 1 9.68825C1 9.26341 1.31548 8.91905 1.70457 8.91897L16.2099 8.91897L11.0664 3.3039C10.8027 3.0058 10.8028 2.53314 11.0665 2.23505Z" fill="white"/>
<path d="M11.5678 16.9962C11.3732 16.9966 11.2152 16.8247 11.2148 16.6123C11.2147 16.5099 11.2519 16.4116 11.3184 16.3393L17.4112 9.68857L11.3184 3.0378C11.1832 2.88502 11.1871 2.64153 11.327 2.49394C11.4636 2.35 11.68 2.35 11.8165 2.49394L18.1581 9.41702C18.2956 9.5672 18.2956 9.81066 18.1581 9.96088L11.8165 16.884C11.7505 16.9559 11.6611 16.9962 11.5678 16.9962Z" fill="white"/>
<path d="M17.9101 10.0722L1.70388 10.0722C1.50931 10.0722 1.35156 9.90002 1.35156 9.68761C1.35156 9.47519 1.50931 9.30298 1.70388 9.30298L17.9102 9.30298C18.1048 9.30298 18.2625 9.47519 18.2625 9.6876C18.2625 9.90002 18.1047 10.0722 17.9101 10.0722Z" fill="white"/>
</svg>
