<svg xmlns="http://www.w3.org/2000/svg">
    <symbol id="icon-user" viewBox="0 0 36 36" fill="none" xmlns="http://www.w3.org/2000/svg">
            <path d="M18 21C21.3137 21 24 18.3137 24 15C24 11.6863 21.3137 9 18 9C14.6863 9 12 11.6863 12 15C12 18.3137 14.6863 21 18 21Z" stroke="currentColor" stroke-width="1.5" stroke-miterlimit="10"/>
            <path d="M9 25.9998C9.91247 24.4796 11.2245 23.2172 12.8043 22.3396C14.3841 21.462 16.176 21 18.0001 21C19.8241 21 21.616 21.4621 23.1958 22.3397C24.7756 23.2174 26.0876 24.4797 27 26" stroke="currentColor" stroke-width="1.5" stroke-linecap="round" stroke-linejoin="round"/>
    </symbol>

    <symbol id="icon-search" viewBox="0 0 36 36" fill="none" xmlns="http://www.w3.org/2000/svg">
            <path d="M16.5 24C20.6421 24 24 20.6421 24 16.5C24 12.3579 20.6421 9 16.5 9C12.3579 9 9 12.3579 9 16.5C9 20.6421 12.3579 24 16.5 24Z" stroke="currentColor" stroke-width="1.5" stroke-linecap="round" stroke-linejoin="round"/>
            <path d="M27 26L23 22" stroke="currentColor" stroke-width="1.5" stroke-linecap="round" stroke-linejoin="round"/>
    </symbol>

    <symbol id="icon-basket" viewBox="0 0 36 36" fill="none" xmlns="http://www.w3.org/2000/svg">
            <path d="M8.83274 25.3744C10.1648 27 12.6424 27 17.5987 27H18.4002C23.3565 27 25.8352 27 27.1673 25.3744M8.83274 25.3744C7.50069 23.7476 7.95803 21.2794 8.87159 16.3406C9.52097 12.8306 9.8451 11.0745 11.0784 10.0372M27.1673 25.3744C28.4993 23.7476 28.042 21.2794 27.1284 16.3406C26.479 12.8306 26.1538 11.0745 24.9205 10.0372M24.9205 10.0372C23.6884 9 21.9245 9 18.4002 9H17.5987C14.0743 9 12.3116 9 11.0784 10.0372" stroke="currentColor" stroke-width="1.5"/>
            <path d="M15 13C15.219 13.5848 15.6252 14.0912 16.1625 14.4494C16.6998 14.8076 17.3418 15 18 15C18.6582 15 19.3002 14.8076 19.8375 14.4494C20.3748 14.0912 20.781 13.5848 21 13" stroke="currentColor" stroke-width="1.5" stroke-linecap="round"/>
    </symbol>

    <symbol id="icon-burger" viewBox="0 0 36 36" fill="none" xmlns="http://www.w3.org/2000/svg">
        <path d="M4.5 10.5H31.5" stroke="currentColor" stroke-width="1.5" stroke-linecap="round"/>
        <path d="M4.5 18H24.5" stroke="currentColor" stroke-width="1.5" stroke-linecap="round"/>
        <path d="M4.5 25.5H16.5" stroke="currentColor" stroke-width="1.5" stroke-linecap="round"/>
    </symbol>

    <symbol id="icon-decor-desktop" viewBox="0 0 2154 1036" fill="none"
         xmlns="http://www.w3.org/2000/svg" preserveAspectRatio="none">
        <path d="M151 510.258C233.586 473.575 483.984 361.649 658.714 269.211C678.845 258.561 702.004 286.33 687.366 303.777L246.77 828.948C232.975 845.392 251.248 869.063 270.649 859.88L1761.43 154.251C1782.25 144.396 1800.49 171.755 1783.38 187.181L1047.48 850.774C1032.43 864.348 1044.79 889.127 1064.69 885.26L2003 702.878"
              stroke="#D1DAFC" stroke-linecap="round"/>
    </symbol>

    <symbol id="icon-decor-tablet" viewBox="0 0 2517 1233" fill="none" xmlns="http://www.w3.org/2000/svg">
        <path d="M151 623.252C264.503 572.857 643.036 403.677 844.719 287.565C852.903 282.853 861.949 293.65 855.878 300.884L219.632 1058.95C213.909 1065.77 221.486 1075.59 229.532 1071.78L2173.23 152.152C2181.86 148.066 2189.42 159.413 2182.33 165.809L1181.42 1068C1175.17 1073.63 1180.3 1083.91 1188.55 1082.3L2366 853.533" stroke="#D1DAFC" stroke-width="300" stroke-linecap="round"/>
    </symbol>

    <symbol id="icon-decor-mobile" viewBox="0 0 1771 812" fill="none" xmlns="http://www.w3.org/2000/svg">
        <path d="M101 395.804C168.313 365.918 367.216 277.056 514.024 200.652C534.226 190.138 557.623 218.308 542.982 235.753L191.138 654.953C177.338 671.395 195.608 695.07 215.01 685.89L1446.51 103.24C1467.33 93.388 1485.57 120.751 1468.45 136.175L868.688 676.773C853.631 690.345 865.994 715.128 885.893 711.262L1670 558.919" stroke="#D1DAFC" stroke-width="200" stroke-linecap="round"/>
    </symbol>

    <symbol id="icon-checks" viewBox="0 0 32 32" fill="none" xmlns="http://www.w3.org/2000/svg">
        <path d="M9.33398 15.9999L16.0007 22.6666L29.334 9.33325" stroke="#5C72EE" stroke-width="1.6" stroke-linecap="round" stroke-linejoin="round"/>
        <path d="M3.23365 15.4345C2.92123 15.1221 2.4147 15.1221 2.10228 15.4345C1.78986 15.7469 1.78986 16.2534 2.10228 16.5658L3.23365 15.4345ZM8.76895 23.2325C9.08137 23.5449 9.5879 23.5449 9.90032 23.2325C10.2127 22.9201 10.2127 22.4136 9.90032 22.1011L8.76895 23.2325ZM15.4356 15.4345C15.1232 15.7469 15.1232 16.2534 15.4356 16.5658C15.748 16.8783 16.2546 16.8783 16.567 16.5658L15.4356 15.4345ZM23.2337 9.89918C23.5461 9.58676 23.5461 9.08023 23.2337 8.76781C22.9212 8.45539 22.4147 8.45539 22.1023 8.76781L23.2337 9.89918ZM2.10228 16.5658L8.76895 23.2325L9.90032 22.1011L3.23365 15.4345L2.10228 16.5658ZM16.567 16.5658L23.2337 9.89918L22.1023 8.76781L15.4356 15.4345L16.567 16.5658Z" fill="#5C72EE"/>
    </symbol>
    <symbol id="icon-review-1" viewBox="0 0 64 64" fill="none" xmlns="http://www.w3.org/2000/svg">
        <circle cx="32" cy="32" r="32" fill="white"/>
        <path d="M20.3772 35.2251C20.4559 35.2167 20.5356 35.2092 20.6153 35.2054C21.4806 35.0901 22.2437 34.6692 22.8278 34.0213C23.3012 33.5048 23.6106 32.8813 23.7897 32.1501C23.9406 31.5773 23.9687 30.9379 23.8731 30.306C23.7297 29.0423 23.2337 27.8507 22.3872 26.8017C22.1209 26.4679 21.8144 26.1342 21.4694 25.8445C20.6987 25.1882 19.9075 24.8151 19.0534 24.6079C18.489 24.4973 17.965 24.457 17.4165 24.5451C16.5503 24.696 15.8228 25.0767 15.2387 25.7207C14.7662 26.241 14.425 26.9451 14.289 27.7157C14.2019 28.1207 14.1587 28.522 14.1897 28.9195L14.1981 29.0385C14.2103 29.1576 14.2178 29.2767 14.23 29.3957L14.2375 29.511C14.3528 30.4213 14.6631 31.2717 15.1272 32.0704C15.4975 32.6779 15.9465 33.2385 16.4631 33.7148C17.1944 34.371 17.9884 34.8238 18.8425 35.0301C19.3787 35.2251 19.9 35.2607 20.3772 35.2251Z" fill="#D3DEFF"/>
        <path d="M21.4767 23.0742C21.7158 24.0285 22.1133 24.862 22.6298 25.5782C23.1455 26.2926 23.7023 26.8092 24.3773 27.2067C24.9342 27.5648 25.5295 27.7635 26.1661 27.8029H26.4839C27.1195 27.8029 27.7158 27.6435 28.2314 27.2863C28.7489 27.0079 29.2252 26.571 29.6227 26.0545C30.1786 25.3392 30.5367 24.4654 30.6952 23.4323C30.7355 22.9954 30.7748 22.5576 30.7748 22.0813C30.7748 21.7232 30.7355 21.366 30.6952 21.0079C30.6164 20.3723 30.457 19.777 30.2189 19.1807C29.8214 18.187 29.2655 17.3526 28.5502 16.717C28.0336 16.2407 27.4767 15.8826 26.8805 15.6838C26.1258 15.4054 25.3711 15.366 24.6164 15.5648C23.9011 15.7232 23.2655 16.1207 22.7086 16.717C22.2323 17.2335 21.9145 17.7904 21.6361 18.4654C21.3577 19.2604 21.1992 20.0948 21.1992 21.0482C21.1992 21.2067 21.2386 21.366 21.2386 21.6042C21.2789 22.0813 21.3577 22.5979 21.4767 23.0742Z" fill="#D3DEFF"/>
        <path d="M32.7569 24.9419C33.0353 25.7369 33.4328 26.3725 33.9888 26.8891C34.7041 27.565 35.5384 27.9625 36.4919 28.0019H36.7309C37.2072 28.0019 37.6441 27.8829 38.1213 27.8829C38.7962 27.6044 39.3925 27.2069 39.9887 26.651C40.585 26.0547 41.0612 25.3797 41.4194 24.6241C41.9359 23.5516 42.2134 22.4388 42.2537 21.2472C42.2537 20.5713 42.2134 19.8963 42.055 19.3C41.8563 18.4657 41.5778 17.7907 41.1409 17.1944C40.4256 16.2007 39.4722 15.6447 38.3594 15.4854C38.32 15.4854 38.32 15.4854 38.2797 15.4854H37.3666C36.85 15.565 36.2931 15.7235 35.8169 16.0019C35.1803 16.36 34.585 16.8766 34.0684 17.5122C33.5116 18.1872 33.115 18.9822 32.7972 19.856C32.5188 20.651 32.3997 21.4854 32.3594 22.3197C32.3594 22.6779 32.3594 23.035 32.3997 23.3922C32.4784 23.9491 32.5984 24.4657 32.7569 24.9419Z" fill="#D3DEFF"/>
        <path d="M49.7396 27.7157C49.6046 26.9451 49.2624 26.241 48.7862 25.7207C48.2021 25.0767 47.4793 24.696 46.613 24.5451C46.0609 24.457 45.5396 24.4973 44.9715 24.6079C44.1174 24.8151 43.3309 25.1882 42.5602 25.8445C42.2143 26.1342 41.9077 26.4679 41.6415 26.8017C40.7959 27.8507 40.299 29.0423 40.1518 30.306C40.0609 30.9379 40.088 31.5773 40.239 32.1501C40.418 32.8813 40.7246 33.5048 41.2009 34.0213C41.7849 34.6692 42.548 35.0901 43.4143 35.2054C43.494 35.2092 43.5727 35.2167 43.6524 35.2251C44.1296 35.2607 44.6499 35.2251 45.1824 35.0301C46.0365 34.8238 46.8315 34.371 47.5665 33.7148C48.083 33.2385 48.5284 32.6779 48.8977 32.0704C49.3618 31.2717 49.6721 30.4213 49.7874 29.511L49.7996 29.3957C49.8071 29.2767 49.8193 29.1576 49.8268 29.0385L49.839 28.9195C49.8709 28.522 49.823 28.1207 49.7396 27.7157Z" fill="#D3DEFF"/>
        <path d="M42.9732 38.3723C42.4566 37.6176 41.821 36.9023 41.0663 36.2666C40.5498 35.7895 40.0332 35.2729 39.5963 34.717C39.1191 34.1207 38.6823 33.4851 38.3251 32.9282L38.0466 32.4913C37.7682 32.0545 37.4897 31.657 37.2122 31.2201C36.7754 30.5845 36.3779 30.0679 35.941 29.6704C35.1854 28.9551 34.3116 28.4779 33.3179 28.2398C32.6823 28.0813 32.0073 28.041 31.3716 28.041C30.7754 28.041 30.1791 28.1601 29.6232 28.3991C28.9473 28.6766 28.351 29.1145 27.7154 29.7098C27.3582 30.0679 26.9607 30.5048 26.5632 31.0213C26.1666 31.5379 25.8085 32.0545 25.4513 32.571L25.2526 32.8888C24.7754 33.5245 24.2982 34.2398 23.7423 34.8754C23.266 35.4313 22.8282 35.8691 22.3913 36.2666C21.8354 36.7429 21.2785 37.2998 20.8416 37.8951C20.206 38.7295 19.7288 39.6435 19.4119 40.5576C19.2132 41.1932 19.0932 41.8288 19.0538 42.4645C19.0144 43.0213 19.0538 43.6166 19.1729 44.1332C19.4907 45.6041 20.2454 46.7957 21.4773 47.6695C22.1926 48.186 22.9876 48.5038 23.9016 48.5835C24.0207 48.6238 24.1004 48.6238 24.2194 48.6238H24.8157C25.1729 48.6238 25.5301 48.5835 25.8085 48.5441C26.6035 48.3848 27.3976 48.186 28.1129 47.9873H28.1532C28.8282 47.8288 29.5041 47.6301 30.1791 47.511C30.4576 47.4707 30.8148 47.392 31.1729 47.392C31.6491 47.392 32.086 47.392 32.4835 47.4313C33.0404 47.511 33.676 47.6301 34.351 47.7885C34.6688 47.8682 35.0269 47.9873 35.3448 48.067C35.7816 48.186 36.2588 48.306 36.7351 48.4251C37.2123 48.5441 37.7288 48.6632 38.2847 48.6632H39.2382C39.3179 48.6632 39.3582 48.6238 39.4369 48.5038C39.676 48.5038 39.9535 48.4645 40.1916 48.3848C40.8282 48.2263 41.4638 47.9479 42.0601 47.511C42.8541 46.9551 43.4907 46.2388 43.8873 45.4045C44.3241 44.4913 44.5229 43.537 44.4835 42.4645C44.4441 41.8682 44.3241 41.1932 44.086 40.5576C43.8479 39.802 43.4907 39.0876 42.9732 38.3723Z" fill="#D3DEFF"/>
    </symbol>

    <symbol id="icon-review-2" viewBox="0 0 64 64" fill="none" xmlns="http://www.w3.org/2000/svg">
        <circle cx="32" cy="32" r="32" fill="white"/>
        <path fill-rule="evenodd" clip-rule="evenodd" d="M26.9587 20.1234C32.9634 19.2781 33.4484 30.0662 27.8927 29.8052C23.4257 29.5952 21.7404 20.8571 26.9587 20.1234Z" fill="#FFBAC2"/>
        <path fill-rule="evenodd" clip-rule="evenodd" d="M36.61 20.1235C43.2236 18.6746 42.4513 30.4617 36.299 29.8054C31.4295 29.2861 32.3785 21.0496 36.61 20.1235Z" fill="#FFBAC2"/>
        <path fill-rule="evenodd" clip-rule="evenodd" d="M24.7792 33.0854C22.428 38.2351 15.2608 34.5966 16.0622 29.4926C16.9057 24.117 26.49 26.8575 24.7792 33.0854Z" fill="#FFBAC2"/>
        <mask id="mask0_2201_146" style="mask-type:luminance" maskUnits="userSpaceOnUse" x="39" y="26" width="10" height="10">
            <path d="M39.8457 26.5942H48.9986V35.9237H39.8457V26.5942Z" fill="white"/>
        </mask>
        <g mask="url(#mask0_2201_146)">
            <path fill-rule="evenodd" clip-rule="evenodd" d="M44.2338 26.6829C45.7811 26.3815 47.715 26.9333 48.4364 28.2434C50.4283 31.8599 46.7573 36.2786 43.1443 35.8955C41.1594 35.6873 40.0137 33.9924 39.8748 32.4609C39.5805 29.18 41.9133 27.1328 44.2338 26.6829Z" fill="#FFBAC2"/>
        </g>
        <mask id="mask1_2201_146" style="mask-type:luminance" maskUnits="userSpaceOnUse" x="24" y="31" width="17" height="14">
            <path d="M24.5488 31.3774H40.3539V44.645H24.5488V31.3774Z" fill="white"/>
        </mask>
        <g mask="url(#mask1_2201_146)">
            <path fill-rule="evenodd" clip-rule="evenodd" d="M30.8507 31.5229C36.3053 30.5793 41.3118 34.5226 40.1907 41.2056C39.9587 42.5886 38.7717 44.5445 37.0768 44.6412C35.7096 44.7193 34.1104 43.3838 32.4076 43.3917C30.2936 43.4023 28.6268 45.2826 26.6472 44.3292C24.9857 43.527 24.3135 40.2848 24.6246 37.9265C25.0718 34.5253 27.5645 32.0914 30.8507 31.5229Z" fill="#FFBAC2"/>
        </g>
    </symbol>

    <symbol id="icon-arrow" viewBox="0 0 20 20" fill="none" xmlns="http://www.w3.org/2000/svg">
        <path d="M11.0665 2.2353C11.3368 1.92981 11.7829 1.92122 12.0628 2.21645L12.0672 2.22107L18.4084 9.14383C18.6103 9.36364 18.671 9.69465 18.562 9.98233C18.5267 10.0756 18.475 10.1601 18.4101 10.2313L18.4095 10.232L12.0696 17.1532C12.0648 17.1586 12.0599 17.1639 12.0549 17.1692C11.775 17.4642 11.3289 17.4559 11.0586 17.1503C10.789 16.8457 10.7959 16.3607 11.0733 16.0653L16.2099 10.4577L1.70463 10.4577C1.31548 10.4577 1 10.1133 1 9.6885C1 9.26365 1.31548 8.91929 1.70457 8.91922L16.2099 8.91922L11.0664 3.30414C10.8027 3.00605 10.8028 2.53338 11.0665 2.2353Z" fill="white"/>
        <path d="M11.5678 16.9965C11.3732 16.9969 11.2152 16.825 11.2148 16.6125C11.2147 16.5101 11.2519 16.4119 11.3184 16.3395L17.4112 9.68881L11.3184 3.03805C11.1832 2.88527 11.1871 2.64177 11.327 2.49419C11.4636 2.35024 11.68 2.35024 11.8165 2.49419L18.1581 9.41726C18.2956 9.56744 18.2956 9.81091 18.1581 9.96112L11.8165 16.8842C11.7505 16.9561 11.6611 16.9965 11.5678 16.9965Z" fill="white"/>
        <path d="M17.9101 10.0724L1.70388 10.0724C1.50931 10.0724 1.35156 9.90027 1.35156 9.68785C1.35156 9.47543 1.50931 9.30322 1.70388 9.30322L17.9102 9.30322C18.1048 9.30322 18.2625 9.47543 18.2625 9.68785C18.2625 9.90026 18.1047 10.0724 17.9101 10.0724Z" fill="white"/>
    </symbol>

    <symbol id="icon-tg" viewBox="0 0 24 24" fill="none" xmlns="http://www.w3.org/2000/svg">
        <path fill-rule="evenodd" clip-rule="evenodd" d="M4.23741 10.4574C9.06923 8.34056 12.2912 6.945 13.9033 6.27074C18.5063 4.34558 19.4627 4.01116 20.0861 4.00012C20.2232 3.99769 20.5298 4.03186 20.7284 4.19389C20.8961 4.33071 20.9422 4.51553 20.9643 4.64524C20.9864 4.77496 21.0139 5.07046 20.992 5.30135C20.7426 7.93675 19.6633 14.3322 19.1142 17.2838C18.8818 18.5328 18.4244 18.9516 17.9815 18.9926C17.0189 19.0816 16.288 18.3529 15.3558 17.7384C13.897 16.7769 13.0729 16.1783 11.6569 15.24C10.0205 14.1556 11.0813 13.5596 12.0139 12.5856C12.258 12.3307 16.4988 8.45188 16.5809 8.10001C16.5912 8.056 16.6007 7.89197 16.5038 7.80535C16.4069 7.71873 16.2639 7.74835 16.1606 7.77191C16.0143 7.8053 13.6839 9.35418 9.16938 12.4185C8.5079 12.8753 7.90875 13.0978 7.37193 13.0862C6.78013 13.0733 5.64175 12.7497 4.79548 12.4731C3.75749 12.1338 2.93252 11.9544 3.00436 11.3782C3.04178 11.0781 3.45279 10.7711 4.23741 10.4574Z" fill="white"/>
    </symbol>

    <symbol id="icon-vk" viewBox="0 0 24 24" fill="none" xmlns="http://www.w3.org/2000/svg">
        <path d="M12.6208 18C5.9584 18 2.15834 13.4955 2 6H5.33729C5.44691 11.5015 7.90719 13.8318 9.85597 14.3123V6H12.9985V10.7447C14.9229 10.5405 16.9445 8.37838 17.6266 6H20.7691C20.2453 8.93093 18.053 11.0931 16.4939 11.982C18.053 12.7027 20.55 14.5886 21.5 18H18.0408C17.2978 15.7177 15.4467 13.952 12.9985 13.7117V18H12.6208Z" fill="white"/>
    </symbol>

    <symbol id="icon-youtube" viewBox="0 0 20 20" fill="none" xmlns="http://www.w3.org/2000/svg">
        <path d="M19.5781 5.11095C19.4643 4.70259 19.2414 4.33025 18.9318 4.03122C18.6222 3.73218 18.2367 3.51693 17.8139 3.40701C16.2568 3 10 3 10 3C10 3 3.74319 3 2.18613 3.40701C1.76333 3.51693 1.37783 3.73218 1.06822 4.03122C0.758609 4.33025 0.535749 4.70259 0.421943 5.11095C0.131206 6.64468 -0.00988125 8.20137 0.000537425 9.76056C-0.00988125 11.3198 0.131206 12.8764 0.421943 14.4102C0.535749 14.8185 0.758609 15.1909 1.06822 15.4899C1.37783 15.7889 1.76333 16.0042 2.18613 16.1141C3.74319 16.5211 10 16.5211 10 16.5211C10 16.5211 16.2568 16.5211 17.8139 16.1141C18.2367 16.0042 18.6222 15.7889 18.9318 15.4899C19.2414 15.1909 19.4643 14.8185 19.5781 14.4102C19.8688 12.8764 20.0099 11.3198 19.9995 9.76056C20.0099 8.20137 19.8688 6.64468 19.5781 5.11095ZM8.00011 12.6579V6.86318L13.1927 9.76056L8.00011 12.6579Z" fill="white"/>
    </symbol>

    <symbol id="icon-pawtastic" viewBox="0 0 193 41" fill="none"
            xmlns="http://www.w3.org/2000/svg">
            <g clip-path="url(#clip0_6996_491)">
              
              <path fill-rule="evenodd" clip-rule="evenodd"
                d="M171.985 28.8204C173.813 30.5079 176.368 31.3516 179.649 31.3516C182.942 31.3516 185.456 30.836 187.19 29.8047C188.936 28.7735 189.809 27.25 189.809 25.2344C189.809 24.9297 189.704 24.6778 189.493 24.4786C189.294 24.2676 189.036 24.1622 188.72 24.1622H186.1C185.304 24.1622 184.63 24.5958 184.079 25.4629C183.387 26.5645 182.145 27.1153 180.352 27.1153C178.571 27.1153 177.317 26.6641 176.591 25.7618C175.876 24.8594 175.518 23.3946 175.518 21.3672C175.518 19.3399 175.864 17.8809 176.555 16.9903C177.259 16.0879 178.483 15.6368 180.229 15.6368C181.987 15.6368 183.212 16.1875 183.903 17.2891C184.454 18.1446 185.128 18.5723 185.925 18.5723H188.544C188.86 18.5723 189.118 18.4727 189.317 18.2735C189.528 18.0743 189.634 17.8165 189.634 17.5C189.634 15.4844 188.761 13.961 187.014 12.9297C185.28 11.8985 182.79 11.3829 179.544 11.3829C176.309 11.3829 173.784 12.2325 171.968 13.9317C170.151 15.6192 169.243 18.1036 169.243 21.3848C169.243 24.6543 170.157 27.1329 171.985 28.8204ZM169.787 11.5897C172.357 9.18876 175.752 8.18286 179.544 8.18286C183.048 8.18286 186.203 8.72539 188.646 10.1772C191.357 11.7799 192.834 14.3458 192.834 17.5C192.834 18.5948 192.437 19.7104 191.548 20.5682C191.218 20.8908 190.856 21.1417 190.478 21.3289C190.938 21.5331 191.372 21.8259 191.756 22.2157C192.598 23.0448 193.009 24.1274 193.009 25.2344C193.009 28.3887 191.533 30.9546 188.822 32.5573C186.373 34.0123 183.19 34.5516 179.649 34.5516C175.826 34.5516 172.402 33.5602 169.815 31.1717C167.141 28.7037 166.043 25.2524 166.043 21.3848C166.043 17.5168 167.129 14.061 169.787 11.5897ZM183.984 21.4054C182.78 20.9239 181.857 20.0218 181.213 19.0214L181.203 19.0059L181.193 18.9903C181.192 18.9892 181.191 18.9882 181.191 18.9874C181.184 18.9833 181.172 18.9767 181.154 18.9683C181.061 18.9264 180.789 18.8368 180.229 18.8368C179.614 18.8368 179.268 18.9186 179.108 18.9778C179.087 18.9855 179.07 18.9923 179.057 18.998C179.022 19.0665 178.956 19.217 178.891 19.4903C178.792 19.9104 178.718 20.5213 178.718 21.3672C178.718 22.2068 178.794 22.812 178.895 23.2278C178.964 23.5087 179.034 23.661 179.071 23.7294C179.09 23.7388 179.119 23.7513 179.159 23.7659C179.344 23.8322 179.714 23.9153 180.352 23.9153C180.938 23.9153 181.227 23.8232 181.332 23.7769C181.351 23.7683 181.364 23.7614 181.372 23.7568L181.373 23.7545L181.378 23.7473C181.987 22.7885 182.854 21.9097 183.984 21.4054Z"
                fill="#E8EEFF" />
              <path fill-rule="evenodd" clip-rule="evenodd"
                d="M158.032 3.74218L158.051 3.72363C159.147 2.6272 160.535 2.24146 161.807 2.24146H163.987C165.261 2.24146 166.626 2.63409 167.708 3.70579C168.828 4.80146 169.209 6.20213 169.209 7.46294V8.0606C169.209 9.00463 168.993 9.99932 168.445 10.8917C168.919 11.6116 169.138 12.4327 169.138 13.2461V29.9278C169.138 31.0225 168.742 32.138 167.852 32.9959C167.006 33.8248 165.93 34.2001 164.866 34.2001H160.929C159.877 34.2001 158.768 33.8394 157.892 32.964C157.178 32.2492 156.806 31.3782 156.694 30.5106C156.833 30.3318 156.903 30.1376 156.903 29.9278V28.0469C156.903 27.7674 156.821 27.5337 156.656 27.3456V13.2461C156.656 12.4496 156.863 11.6195 157.345 10.8831C156.8 9.99287 156.586 9.00157 156.586 8.0606V7.46294C156.586 6.21196 156.959 4.85124 158.014 3.76102L158.032 3.74218ZM159.998 9.07174C160.083 9.24517 160.194 9.40031 160.331 9.53716C160.502 9.7079 160.701 9.83852 160.929 9.92901C161.185 10.0311 161.478 10.0821 161.807 10.0821H163.987C164.319 10.0821 164.612 10.0322 164.866 9.93247C165.097 9.84186 165.296 9.71008 165.464 9.53716C165.6 9.40036 165.712 9.24528 165.797 9.07193C165.938 8.78491 166.009 8.44781 166.009 8.0606V7.46294C166.009 6.83013 165.827 6.33793 165.464 5.98638C165.1 5.6231 164.608 5.44146 163.987 5.44146H161.807C161.175 5.44146 160.677 5.6231 160.313 5.98638C159.962 6.34966 159.786 6.84185 159.786 7.46294V8.0606C159.786 8.44773 159.857 8.78477 159.998 9.07174ZM165.639 12.4903C165.44 12.2793 165.182 12.1739 164.866 12.1739H160.929C160.624 12.1739 160.366 12.2735 160.155 12.4727C160.021 12.6072 159.931 12.7685 159.888 12.9564C159.867 13.0468 159.856 13.1434 159.856 13.2461V29.9278C159.856 30.2442 159.956 30.502 160.155 30.7012C160.354 30.9004 160.612 31 160.929 31H164.866C165.171 31 165.423 30.9004 165.622 30.7012C165.833 30.502 165.938 30.2442 165.938 29.9278V13.2461C165.938 13.145 165.927 13.0496 165.905 12.9601C165.861 12.78 165.773 12.6234 165.639 12.4903Z"
                fill="#E8EEFF" />
              <path fill-rule="evenodd" clip-rule="evenodd"
                d="M155.163 26.9747H155.813C156.13 26.9747 156.387 27.0743 156.587 27.2735C156.798 27.4727 156.903 27.7305 156.903 28.0469V29.9278C156.903 30.1856 156.798 30.42 156.587 30.6309C156.387 30.8301 156.13 30.9532 155.813 31C154.618 31.2344 153.059 31.3516 151.137 31.3516C146.098 31.3516 143.579 28.7149 143.579 23.4415V6.88286C143.579 6.56645 143.679 6.30864 143.878 6.10942C144.089 5.89849 144.346 5.79302 144.651 5.79302H148.589C148.893 5.79302 149.145 5.89849 149.345 6.10942C149.555 6.30864 149.661 6.56645 149.661 6.88286V12.754H154.565C154.87 12.754 155.122 12.8536 155.321 13.0528C155.532 13.252 155.637 13.5098 155.637 13.8262V15.918C155.637 16.2344 155.532 16.4922 155.321 16.6915C155.122 16.8907 154.87 16.9903 154.565 16.9903H149.661V23.4415C149.661 24.6368 149.942 25.5625 150.505 26.2188C151.067 26.8633 151.817 27.1856 152.755 27.1856L155.163 26.9747ZM152.9 23.9606L155.023 23.7747H155.813C156.851 23.7747 157.947 24.1265 158.817 24.9787C159.309 25.4527 159.649 26.0054 159.856 26.5898V29.9278C159.856 30.1836 159.921 30.4011 160.052 30.5804C159.9 31.5271 159.43 32.3133 158.849 32.8937C158.125 33.6184 157.242 34.0064 156.371 34.1516C154.903 34.4335 153.136 34.5516 151.137 34.5516C148.087 34.5516 145.22 33.746 143.155 31.5848C141.116 29.4508 140.379 26.536 140.379 23.4415V6.88286C140.379 5.83181 140.74 4.72212 141.615 3.84668C142.44 3.0214 143.518 2.59302 144.651 2.59302H148.589C149.696 2.59302 150.779 3.00477 151.608 3.8469C152.474 4.70037 152.861 5.80181 152.861 6.88286V9.55396H154.565C155.629 9.55396 156.705 9.92922 157.552 10.7582C158.441 11.6161 158.837 12.7316 158.837 13.8262V15.918C158.837 17.0127 158.441 18.1283 157.552 18.9861C156.705 19.815 155.629 20.1903 154.565 20.1903H152.861V23.4415C152.861 23.6775 152.879 23.8454 152.9 23.9606Z"
                fill="#E8EEFF" />
              <path fill-rule="evenodd" clip-rule="evenodd"
                d="M130.096 11.3829C123.991 11.3829 120.938 13.2754 120.938 17.0606C120.938 18.4083 121.395 19.5333 122.309 20.4356C122.986 21.1033 123.765 21.6362 124.646 22.0344C124.658 22.0398 124.67 22.0452 124.682 22.0506C124.981 22.1839 125.292 22.3018 125.614 22.4043C126.404 22.6463 127.196 22.8666 127.99 23.0654C128.504 23.1939 129.018 23.3134 129.534 23.4239C130.409 23.6036 131.193 23.8016 131.886 24.0178C131.895 24.0204 131.903 24.0231 131.912 24.0258C132.248 24.1313 132.563 24.2413 132.856 24.3555C133.77 24.7071 134.227 25.1465 134.227 25.6739C134.227 26.5601 133.395 27.0973 131.729 27.2854C131.724 27.2859 131.719 27.2865 131.714 27.2871C131.71 27.2875 131.706 27.288 131.702 27.2884C131.667 27.2923 131.632 27.2959 131.596 27.2995C131.181 27.3407 130.716 27.3614 130.202 27.3614C128.514 27.3614 127.384 27.0098 126.809 26.3067C126.718 26.1927 126.623 26.0878 126.524 25.9921C126.021 25.5024 125.429 25.25 124.747 25.2351C124.736 25.2349 124.725 25.2347 124.714 25.2346C124.703 25.2345 124.693 25.2344 124.682 25.2344H122.063C121.747 25.2344 121.483 25.3399 121.272 25.5508C121.073 25.75 120.973 26.0079 120.973 26.3243C120.973 29.6758 124.196 31.3516 130.641 31.3516C137.087 31.3516 140.309 29.459 140.309 25.6739C140.309 24.3028 139.852 23.1719 138.938 22.2813C138.28 21.6234 137.517 21.0963 136.647 20.7C136.449 20.6101 136.246 20.5268 136.038 20.4503C135.905 20.4017 135.771 20.3557 135.634 20.3125C134.572 19.9779 133.507 19.6939 132.438 19.4607C132.196 19.4081 131.955 19.358 131.714 19.3106C130.807 19.1228 129.995 18.9151 129.276 18.6875C129.276 18.6874 129.277 18.6876 129.276 18.6875C128.964 18.5885 128.668 18.4855 128.391 18.379C127.489 18.0274 127.038 17.5879 127.038 17.0606C127.038 16.1104 127.866 15.5615 129.521 15.4138C129.525 15.4135 129.528 15.4132 129.532 15.4128C129.537 15.4124 129.542 15.4119 129.548 15.4115C129.559 15.4105 129.571 15.4095 129.583 15.4085C129.87 15.3849 130.182 15.3731 130.518 15.3731C132.206 15.3731 133.337 15.7305 133.911 16.4454C133.935 16.4753 133.96 16.5046 133.985 16.5333C134.546 17.1778 135.23 17.5 136.038 17.5H138.657C138.973 17.5 139.231 17.4004 139.43 17.2012C139.63 16.9903 139.729 16.7325 139.729 16.4278C139.729 13.0645 136.518 11.3829 130.096 11.3829ZM141.123 19.9418C141.322 19.8036 141.512 19.6447 141.693 19.464L141.726 19.4316L141.757 19.3984C142.547 18.5614 142.929 17.5044 142.929 16.4278C142.929 15.0565 142.595 13.7088 141.827 12.5024C141.067 11.309 139.999 10.4344 138.806 9.80933C136.513 8.60866 133.483 8.18286 130.096 8.18286C126.817 8.18286 123.816 8.67249 121.542 10.0826C119.014 11.6494 117.738 14.1327 117.738 17.0606C117.738 19.1575 118.464 21.0685 119.934 22.5845C119.604 22.7704 119.293 23.0043 119.01 23.2881C118.134 24.1635 117.773 25.2732 117.773 26.3243C117.773 27.697 118.111 29.0454 118.884 30.2507C119.647 31.4419 120.719 32.3126 121.914 32.9339C124.21 34.1276 127.246 34.5516 130.641 34.5516C134.073 34.5516 137.172 34.0664 139.513 32.6915C142.118 31.1615 143.509 28.6833 143.509 25.6739C143.509 23.5179 142.758 21.543 141.187 20.0042C141.166 19.9833 141.145 19.9625 141.123 19.9418Z"
                fill="#E8EEFF" />
              <path fill-rule="evenodd" clip-rule="evenodd"
                d="M95.7834 30.2334C96.3485 31.0351 97.0694 31.7498 97.9445 32.3597L97.9538 32.3661C100.175 33.9028 102.842 34.5505 105.726 34.5516C107.59 34.5597 109.362 34.2492 111.015 33.6088C111.711 34.0209 112.481 34.2001 113.221 34.2001H116.614C117.665 34.2001 118.775 33.8394 119.65 32.964C120.526 32.0885 120.886 30.9788 120.886 29.9278V19.0469C120.886 15.6985 119.762 12.6844 117.057 10.6904C114.663 8.91426 111.691 8.18286 108.44 8.18286C105.07 8.18286 102.05 8.60891 99.7641 9.81269C98.5738 10.4395 97.5104 11.3158 96.7551 12.5091C95.992 13.7146 95.6602 15.0599 95.6602 16.4278C95.6602 17.3927 95.9669 18.3419 96.5997 19.131C95.0383 20.7323 94.2539 22.8123 94.2539 25.1641C94.2539 25.788 94.309 26.3928 94.419 26.9747H94.7469C95.0633 26.9747 95.3211 27.0743 95.5203 27.2735C95.7312 27.4727 95.8367 27.7305 95.8367 28.0469V29.9278C95.8367 30.0336 95.8189 30.1355 95.7834 30.2334ZM99.218 17.2533C99.4185 17.4178 99.6625 17.5 99.95 17.5H102.569C103.413 17.5 104.122 17.1485 104.696 16.4454C104.891 16.2074 105.133 16.009 105.422 15.8503C106 15.5322 106.766 15.3731 107.72 15.3731C108.823 15.3731 109.672 15.531 110.267 15.8469C110.45 15.9437 110.608 16.0553 110.743 16.1817C111.317 16.7208 111.604 17.6758 111.604 19.0469H105.786C104.611 19.0469 103.539 19.1682 102.569 19.4109C101.592 19.6553 100.719 20.0228 99.95 20.5134C99.8908 20.5512 99.8322 20.5897 99.7742 20.629C99.7435 20.6499 99.7131 20.671 99.683 20.6923C98.1969 21.7438 97.4539 23.2344 97.4539 25.1641C97.4539 27.1329 98.2273 28.6563 99.7742 29.7344C101.333 30.8125 103.319 31.3516 105.733 31.3516C106.908 31.3573 108.016 31.2063 109.056 30.8986C109.845 30.6651 110.595 30.3415 111.307 29.9278C111.594 29.7608 111.875 29.5792 112.149 29.3829V29.9278C112.149 30.2325 112.249 30.4903 112.448 30.7012C112.647 30.9004 112.905 31 113.221 31H116.614C116.93 31 117.188 30.9004 117.387 30.7012C117.587 30.502 117.686 30.2442 117.686 29.9278V19.0469C117.686 16.4336 116.843 14.5059 115.155 13.2637C113.468 12.0098 111.229 11.3829 108.44 11.3829C102.054 11.3829 98.8602 13.0645 98.8602 16.4278C98.8602 16.7325 98.9598 16.9903 99.159 17.2012C99.1782 17.2194 99.1979 17.2367 99.218 17.2533ZM111.604 25.7793V23.0372H106.208C105.387 23.0372 104.737 23.2364 104.257 23.6348C103.788 24.0333 103.554 24.5489 103.554 25.1817C103.554 25.8145 103.8 26.336 104.292 26.7461C104.784 27.1563 105.481 27.3614 106.384 27.3614C107.905 27.3614 109.38 26.9866 110.81 26.2372C111.076 26.0976 111.341 25.945 111.604 25.7793Z"
                fill="#E8EEFF" />
              <path fill-rule="evenodd" clip-rule="evenodd"
                d="M94.0965 26.9747H94.7469C95.0633 26.9747 95.3211 27.0743 95.5203 27.2735C95.7312 27.4727 95.8367 27.7305 95.8367 28.0469V29.9278C95.8367 30.1856 95.7312 30.42 95.5203 30.6309C95.3211 30.8301 95.0633 30.9532 94.7469 31C93.5516 31.2344 91.993 31.3516 90.0711 31.3516C85.032 31.3516 82.5125 28.7149 82.5125 23.4415V6.88286C82.5125 6.56645 82.6121 6.30864 82.8113 6.10942C83.0223 5.89849 83.2801 5.79302 83.5848 5.79302H87.5223C87.827 5.79302 88.0789 5.89849 88.2781 6.10942C88.4891 6.30864 88.5945 6.56645 88.5945 6.88286V12.754H93.4988C93.8035 12.754 94.0555 12.8536 94.2547 13.0528C94.4656 13.252 94.5711 13.5098 94.5711 13.8262V15.918C94.5711 16.2344 94.4656 16.4922 94.2547 16.6915C94.0555 16.8907 93.8035 16.9903 93.4988 16.9903H88.5945V23.4415C88.5945 24.6368 88.8758 25.5625 89.4383 26.2188C90.0008 26.8633 90.7508 27.1856 91.6883 27.1856L94.0965 26.9747ZM91.8336 23.9606L93.9566 23.7747H94.7469C95.6752 23.7747 96.6492 24.056 97.4672 24.7248C97.4583 24.8686 97.4539 25.0151 97.4539 25.1641C97.4539 25.1848 97.454 25.2053 97.4542 25.2259C97.4545 25.2634 97.4551 25.3007 97.4559 25.3379C97.4802 26.3655 97.7209 27.2686 98.1782 28.0469C98.4091 28.4401 98.6953 28.8014 99.0367 29.1309V29.9278C99.0367 31.1685 98.4921 32.1846 97.7831 32.8937C97.0583 33.6184 96.1753 34.0064 95.3041 34.1516C93.8361 34.4335 92.0693 34.5516 90.0711 34.5516C87.0203 34.5516 84.1537 33.746 82.0886 31.5848C80.0494 29.4508 79.3125 26.536 79.3125 23.4415V14.8315L79.823 13.2813C79.9285 12.9883 79.9812 12.7364 79.9812 12.5254C79.9711 12.0668 79.7481 11.8076 79.3125 11.7479V6.88286C79.3125 5.83181 79.6731 4.72212 80.5486 3.84668C81.3739 3.0214 82.4517 2.59302 83.5848 2.59302H87.5223C88.6293 2.59302 89.712 3.00462 90.5411 3.84645C91.4076 4.69998 91.7945 5.80162 91.7945 6.88286V9.55396H93.4988C94.5622 9.55396 95.6385 9.92909 96.4848 10.7578C97.3743 11.6157 97.7711 12.7314 97.7711 13.8262V15.918C97.7711 17.0129 97.3743 18.1287 96.4847 18.9866C95.6384 19.8152 94.5621 20.1903 93.4988 20.1903H91.7945V23.4415C91.7945 23.6775 91.8126 23.8454 91.8336 23.9606Z"
                fill="#E8EEFF" />
              <path fill-rule="evenodd" clip-rule="evenodd"
                d="M48.3582 12.5254C48.3699 12.7247 48.4227 12.9766 48.5164 13.2813L53.8426 29.4532C54.0066 29.9336 54.2996 30.3145 54.7215 30.5958C55.1434 30.8653 55.5945 31 56.075 31H58.5535C58.5779 31 58.6022 30.9997 58.6264 30.999C59.0803 30.9854 59.513 30.8452 59.9246 30.5782C60.3582 30.2852 60.6453 29.9102 60.7859 29.4532L64.1785 18.9766L67.5535 29.4532C67.6941 29.9102 67.9813 30.2852 68.4148 30.5782C68.8265 30.8452 69.2592 30.9854 69.713 30.999C69.7373 30.9997 69.7616 31 69.7859 31H72.2645C72.7449 31 73.1961 30.8653 73.618 30.5958C74.0398 30.3145 74.3328 29.9336 74.4969 29.4532L79.823 13.2813C79.9285 12.9883 79.9813 12.7364 79.9813 12.5254C79.9695 11.9981 79.6766 11.7344 79.1023 11.7344H75.8328C75.282 11.7344 74.7898 11.875 74.3563 12.1563C73.9227 12.4258 73.6238 12.8008 73.4598 13.2813L70.577 22.7559L67.7293 13.2813C67.4246 12.25 66.7566 11.7344 65.7254 11.7344H62.6141C61.5945 11.7344 60.9266 12.25 60.6102 13.2813L57.7625 22.7559L54.8797 13.2813C54.7156 12.8008 54.4168 12.4258 53.9832 12.1563C53.5496 11.875 53.0574 11.7344 52.5066 11.7344H49.2371C48.6512 11.7461 48.3582 12.0098 48.3582 12.5254ZM55.6992 9.45524C54.719 8.82653 53.6233 8.53442 52.5066 8.53442H49.2051L49.1731 8.53506C48.4751 8.54902 47.3769 8.71673 46.4372 9.56243C45.4241 10.4742 45.1582 11.6562 45.1582 12.5254V12.6195L45.1637 12.7133C45.1967 13.2733 45.3279 13.7998 45.4579 14.2224L45.4672 14.2524L50.8086 30.4707L50.8143 30.4872C51.2054 31.6326 51.9383 32.5862 52.9464 33.2583L52.9724 33.2756L52.9986 33.2924C53.9123 33.8761 54.9576 34.2001 56.075 34.2001H58.5535C59.6992 34.2001 60.7549 33.8538 61.666 33.2629L61.6912 33.2465L61.7162 33.2297C62.6867 32.5739 63.4568 31.6306 63.836 30.4215L64.1706 29.3881L64.5026 30.4187C64.8814 31.6291 65.652 32.5734 66.6233 33.2297L66.6482 33.2465L66.6734 33.2629C67.5846 33.8538 68.6403 34.2001 69.7859 34.2001H72.2645C73.3819 34.2001 74.4272 33.8761 75.3408 33.2924L75.3671 33.2756L75.393 33.2583C76.4012 32.5862 77.1341 31.6326 77.5252 30.4872L77.5308 30.4707L82.5125 15.3449V10.2666C82.3467 10.0188 82.1429 9.77814 81.8934 9.55364C80.94 8.69557 79.8245 8.53442 79.1023 8.53442H75.8328C74.7163 8.53442 73.6208 8.82645 72.6406 9.45499C71.7299 10.0281 71.0316 10.8335 70.6021 11.8094C70.28 11.007 69.7624 10.2112 68.9552 9.58805C67.9456 8.8087 66.7873 8.53442 65.7254 8.53442H62.6141C61.5484 8.53442 60.3965 8.81349 59.3931 9.58805C58.5842 10.2124 58.0644 11.0102 57.7389 11.8128C57.3096 10.8355 56.6108 10.029 55.6992 9.45524Z"
                fill="#E8EEFF" />
              <path fill-rule="evenodd" clip-rule="evenodd"
                d="M22.8281 26.4567C23.1421 28.8593 24.3516 30.9067 26.4362 32.3597L26.4455 32.3661C28.6669 33.9028 31.3338 34.5505 34.2175 34.5516C36.0818 34.5597 37.8541 34.2492 39.5063 33.6088C40.2027 34.0209 40.9726 34.2001 41.7132 34.2001H45.1058C46.1569 34.2001 47.2666 33.8394 48.142 32.964C49.0174 32.0885 49.3781 30.9788 49.3781 29.9278V19.0469C49.3781 15.699 48.2544 12.6852 45.5501 10.6912C43.156 8.9145 40.183 8.18286 36.932 8.18286C33.5621 8.18286 30.5418 8.60891 28.2559 9.81269C27.0656 10.4395 26.0022 11.3158 25.2468 12.5091C24.4838 13.7146 24.1519 15.0599 24.1519 16.4278C24.1519 17.3927 24.4587 18.3419 25.0914 19.131C24.5648 19.6712 24.1265 20.2658 23.7769 20.9069C23.7813 21.07 23.7835 21.2352 23.7835 21.4024C23.7835 22.798 23.6231 24.0519 23.3021 25.1641C23.1709 25.6186 23.0129 26.0495 22.8281 26.4567ZM27.7098 17.2533C27.9102 17.4178 28.1542 17.5 28.4418 17.5H31.0609C31.9046 17.5 32.6136 17.1485 33.1878 16.4454C33.3829 16.2074 33.6247 16.009 33.9133 15.8503C34.4916 15.5322 35.2576 15.3731 36.2113 15.3731C37.3147 15.3731 38.164 15.531 38.7592 15.8469C38.9416 15.9437 39.1001 16.0553 39.2347 16.1817C39.8089 16.7208 40.096 17.6758 40.096 19.0469H34.2777C33.103 19.0469 32.0307 19.1682 31.0609 19.4109C30.0839 19.6553 29.2108 20.0228 28.4418 20.5134C28.3825 20.5512 28.3239 20.5897 28.266 20.629C28.2353 20.6499 28.2049 20.671 28.1748 20.6923C26.6887 21.7438 25.9457 23.2344 25.9457 25.1641C25.9457 27.1329 26.7191 28.6563 28.266 29.7344C29.8246 30.8125 31.8109 31.3516 34.225 31.3516C35.3999 31.3573 36.5074 31.2063 37.5476 30.8986C38.3367 30.6651 39.087 30.3415 39.7985 29.9278C40.0857 29.7608 40.3665 29.5792 40.641 29.3829V29.9278C40.641 30.2325 40.7406 30.4903 40.9398 30.7012C41.139 30.9004 41.3968 31 41.7132 31H45.1058C45.4222 31 45.68 30.9004 45.8793 30.7012C46.0785 30.502 46.1781 30.2442 46.1781 29.9278V19.0469C46.1781 16.4336 45.3343 14.5059 43.6468 13.2637C41.9593 12.0098 39.721 11.3829 36.932 11.3829C30.5453 11.3829 27.3519 13.0645 27.3519 16.4278C27.3519 16.7325 27.4515 16.9903 27.6507 17.2012C27.67 17.2194 27.6897 17.2367 27.7098 17.2533ZM40.096 25.7793V23.0372H34.6996C33.8793 23.0372 33.2289 23.2364 32.7484 23.6348C32.2796 24.0333 32.0453 24.5489 32.0453 25.1817C32.0453 25.8145 32.2914 26.336 32.7835 26.7461C33.2757 27.1563 33.973 27.3614 34.8753 27.3614C36.3967 27.3614 37.8722 26.9866 39.3019 26.2372C39.5682 26.0976 39.8329 25.945 40.096 25.7793Z"
                fill="#E8EEFF" />
              <path fill-rule="evenodd" clip-rule="evenodd"
                d="M3.2 12.8243V35.8516C3.2 36.168 3.29961 36.4258 3.49883 36.625C3.70977 36.836 3.96758 36.9415 4.27227 36.9415H8.20977C8.51445 36.9415 8.76641 36.836 8.96562 36.625C9.17656 36.4258 9.28203 36.168 9.28203 35.8516V30.4551C10.4227 30.8142 11.4894 31.0655 12.482 31.2088C13.1414 31.304 13.7681 31.3516 14.3621 31.3516C17.2449 31.3516 19.5359 30.4961 21.2352 28.7852C22.9344 27.0743 23.784 24.6133 23.784 21.4024C23.784 18.1797 22.9637 15.7071 21.323 13.9844C19.6824 12.25 17.6375 11.3829 15.1883 11.3829C13.9979 11.3829 12.8782 11.5379 11.829 11.8479C11.031 12.0837 10.2739 12.4091 9.55759 12.8243C9.27787 12.9864 9.00438 13.1622 8.73711 13.3516V12.8243C8.73711 12.5079 8.63164 12.25 8.4207 12.0508C8.22148 11.8399 7.96953 11.7344 7.66484 11.7344H4.27227C3.96758 11.7344 3.70977 11.8399 3.49883 12.0508C3.29961 12.25 3.2 12.5079 3.2 12.8243ZM9.86401 9.13906C9.1943 8.73388 8.43549 8.53442 7.66484 8.53442H4.27227C3.13922 8.53442 2.06137 8.96281 1.23609 9.78809C0.360646 10.6635 0 11.7732 0 12.8243V35.8516C0 36.9027 0.360646 38.0124 1.23609 38.8878C2.06137 39.7131 3.13922 40.1415 4.27227 40.1415H8.20977C9.31691 40.1415 10.3996 39.7298 11.2288 38.8879C12.0951 38.0343 12.482 36.9328 12.482 35.8516V34.4362C13.1207 34.5121 13.7478 34.5516 14.3621 34.5516C17.9186 34.5516 21.0904 33.472 23.5057 31.0402C24.7218 29.8157 25.5833 28.3746 26.1447 26.7778C26.0123 26.278 25.9461 25.7401 25.9461 25.1641C25.9461 23.8502 26.2906 22.7399 26.9795 21.8331C26.9825 21.6901 26.984 21.5465 26.984 21.4024C26.984 17.6572 26.0249 14.2838 23.6441 11.7815C21.3821 9.39229 18.4895 8.18286 15.1883 8.18286C13.3103 8.18286 11.5258 8.49665 9.86401 9.13906ZM16.5066 25.7442C17.1863 24.8301 17.5262 23.3711 17.5262 21.3672C17.5262 19.3633 17.2039 17.9102 16.5594 17.0079C15.9266 16.0938 14.9715 15.6368 13.6941 15.6368C12.4285 15.6368 10.9578 16.1641 9.28203 17.2188V26.3946C10.7937 26.875 12.0652 27.1153 13.0965 27.1153C14.702 27.1153 15.8387 26.6583 16.5066 25.7442ZM12.482 23.8729C12.7195 23.9025 12.9236 23.9153 13.0965 23.9153C13.6093 23.9153 13.8668 23.8406 13.9586 23.8038C14.05 23.6466 14.3262 23 14.3262 21.3672C14.3262 20.5238 14.2571 19.9036 14.1604 19.4673C14.1129 19.2534 14.063 19.1028 14.022 19.003C13.9821 18.9058 13.9554 18.8678 13.9554 18.8678L13.9477 18.857C13.902 18.8477 13.821 18.8368 13.6941 18.8368C13.453 18.8368 13.0563 18.902 12.482 19.1366V23.8729Z"
                fill="#E8EEFF" />
              <path
                d="M179.648 31.3516C176.367 31.3516 173.812 30.5078 171.984 28.8203C170.156 27.1328 169.242 24.6543 169.242 21.3848C169.242 18.1035 170.15 15.6191 171.967 13.9316C173.783 12.2324 176.309 11.3828 179.543 11.3828C182.789 11.3828 185.279 11.8984 187.014 12.9297C188.76 13.9609 189.633 15.4844 189.633 17.5C189.633 17.8164 189.527 18.0742 189.316 18.2734C189.117 18.4727 188.859 18.5723 188.543 18.5723H185.924C185.127 18.5723 184.453 18.1445 183.902 17.2891C183.211 16.1875 181.986 15.6367 180.229 15.6367C178.482 15.6367 177.258 16.0879 176.555 16.9902C175.863 17.8809 175.518 19.3398 175.518 21.3672C175.518 23.3945 175.875 24.8594 176.59 25.7617C177.316 26.6641 178.57 27.1152 180.352 27.1152C182.145 27.1152 183.387 26.5645 184.078 25.4629C184.629 24.5957 185.303 24.1621 186.1 24.1621H188.719C189.035 24.1621 189.293 24.2676 189.492 24.4785C189.703 24.6777 189.809 24.9297 189.809 25.2344C189.809 27.25 188.936 28.7734 187.189 29.8047C185.455 30.8359 182.941 31.3516 179.648 31.3516Z"
                fill="currentColor" />
              <path
                d="M159.785 8.06055V7.46289C159.785 6.8418 159.961 6.34961 160.312 5.98633C160.676 5.62305 161.174 5.44141 161.807 5.44141H163.986C164.607 5.44141 165.1 5.62305 165.463 5.98633C165.826 6.33789 166.008 6.83008 166.008 7.46289V8.06055C166.008 8.68164 165.826 9.17383 165.463 9.53711C165.111 9.90039 164.619 10.082 163.986 10.082H161.807C161.186 10.082 160.693 9.90039 160.33 9.53711C159.967 9.17383 159.785 8.68164 159.785 8.06055ZM159.855 29.9277V13.2461C159.855 12.9297 159.955 12.6719 160.154 12.4727C160.365 12.2734 160.623 12.1738 160.928 12.1738H164.865C165.182 12.1738 165.439 12.2793 165.639 12.4902C165.838 12.6895 165.938 12.9414 165.938 13.2461V29.9277C165.938 30.2441 165.832 30.502 165.621 30.7012C165.422 30.9004 165.17 31 164.865 31H160.928C160.611 31 160.354 30.9004 160.154 30.7012C159.955 30.502 159.855 30.2441 159.855 29.9277Z"
                fill="currentColor" />
              <path
                d="M152.754 27.1855L155.162 26.9746H155.812C156.129 26.9746 156.387 27.0742 156.586 27.2734C156.797 27.4727 156.902 27.7305 156.902 28.0469V29.9277C156.902 30.1855 156.797 30.4199 156.586 30.6309C156.387 30.8301 156.129 30.9531 155.812 31C154.617 31.2344 153.059 31.3516 151.137 31.3516C146.098 31.3516 143.578 28.7148 143.578 23.4414V6.88281C143.578 6.56641 143.678 6.30859 143.877 6.10938C144.088 5.89844 144.346 5.79297 144.65 5.79297H148.588C148.893 5.79297 149.145 5.89844 149.344 6.10938C149.555 6.30859 149.66 6.56641 149.66 6.88281V12.7539H154.564C154.869 12.7539 155.121 12.8535 155.32 13.0527C155.531 13.252 155.637 13.5098 155.637 13.8262V15.918C155.637 16.2344 155.531 16.4922 155.32 16.6914C155.121 16.8906 154.869 16.9902 154.564 16.9902H149.66V23.4414C149.66 24.6367 149.941 25.5625 150.504 26.2188C151.066 26.8633 151.816 27.1855 152.754 27.1855Z"
                fill="currentColor" />
              <path
                d="M120.938 17.0605C120.938 13.2754 123.989 11.3828 130.095 11.3828C136.517 11.3828 139.729 13.0645 139.729 16.4277C139.729 16.7324 139.628 16.9902 139.429 17.2012C139.229 17.4004 138.973 17.5 138.656 17.5H136.036C135.192 17.5 134.484 17.1484 133.91 16.4453C133.335 15.7305 132.205 15.373 130.518 15.373C128.197 15.373 127.036 15.9355 127.036 17.0605C127.036 17.5879 127.488 18.0273 128.391 18.3789C129.305 18.7305 130.411 19.041 131.712 19.3105C133.024 19.5684 134.331 19.9023 135.632 20.3125C136.933 20.7227 138.035 21.3789 138.938 22.2812C139.851 23.1719 140.309 24.3027 140.309 25.6738C140.309 29.459 137.086 31.3516 130.641 31.3516C124.195 31.3516 120.972 29.6758 120.972 26.3242C120.972 26.0078 121.072 25.75 121.271 25.5508C121.482 25.3398 121.745 25.2344 122.061 25.2344H124.681C125.524 25.2344 126.233 25.5918 126.808 26.3066C127.382 27.0098 128.514 27.3613 130.201 27.3613C132.885 27.3613 134.227 26.7988 134.227 25.6738C134.227 25.1465 133.769 24.707 132.854 24.3555C131.952 24.0039 130.846 23.6934 129.533 23.4238C128.221 23.1426 126.913 22.8027 125.612 22.4043C124.323 21.9941 123.222 21.3379 122.308 20.4355C121.394 19.5332 120.938 18.4082 120.938 17.0605Z"
                fill="currentColor" />
              <path
                d="M99.7734 29.7344C98.2266 28.6562 97.4531 27.1328 97.4531 25.1641C97.4531 23.1953 98.2266 21.6836 99.7734 20.6289C101.332 19.5742 103.336 19.0469 105.785 19.0469H111.604C111.604 17.6758 111.316 16.7207 110.742 16.1816C110.168 15.6426 109.16 15.373 107.719 15.373C106.289 15.373 105.281 15.7305 104.695 16.4453C104.121 17.1484 103.412 17.5 102.568 17.5H99.9492C99.6328 17.5 99.3691 17.4004 99.1582 17.2012C98.959 16.9902 98.8594 16.7324 98.8594 16.4277C98.8594 13.0645 102.053 11.3828 108.439 11.3828C111.229 11.3828 113.467 12.0098 115.154 13.2637C116.842 14.5059 117.686 16.4336 117.686 19.0469V29.9277C117.686 30.2441 117.586 30.502 117.387 30.7012C117.188 30.9004 116.93 31 116.613 31H113.221C112.904 31 112.646 30.9004 112.447 30.7012C112.248 30.4902 112.148 30.2324 112.148 29.9277V29.3828C110.297 30.707 108.158 31.3633 105.732 31.3516C103.318 31.3516 101.332 30.8125 99.7734 29.7344ZM106.207 23.0371C105.387 23.0371 104.736 23.2363 104.256 23.6348C103.787 24.0332 103.553 24.5488 103.553 25.1816C103.553 25.8145 103.799 26.3359 104.291 26.7461C104.783 27.1562 105.48 27.3613 106.383 27.3613C108.188 27.3613 109.928 26.834 111.604 25.7793V23.0371H106.207Z"
                fill="currentColor" />
              <path
                d="M91.6875 27.1855L94.0957 26.9746H94.7461C95.0625 26.9746 95.3203 27.0742 95.5195 27.2734C95.7305 27.4727 95.8359 27.7305 95.8359 28.0469V29.9277C95.8359 30.1855 95.7305 30.4199 95.5195 30.6309C95.3203 30.8301 95.0625 30.9531 94.7461 31C93.5508 31.2344 91.9922 31.3516 90.0703 31.3516C85.0312 31.3516 82.5117 28.7148 82.5117 23.4414V6.88281C82.5117 6.56641 82.6113 6.30859 82.8105 6.10938C83.0215 5.89844 83.2793 5.79297 83.584 5.79297H87.5215C87.8262 5.79297 88.0781 5.89844 88.2773 6.10938C88.4883 6.30859 88.5938 6.56641 88.5938 6.88281V12.7539H93.498C93.8027 12.7539 94.0547 12.8535 94.2539 13.0527C94.4648 13.252 94.5703 13.5098 94.5703 13.8262V15.918C94.5703 16.2344 94.4648 16.4922 94.2539 16.6914C94.0547 16.8906 93.8027 16.9902 93.498 16.9902H88.5938V23.4414C88.5938 24.6367 88.875 25.5625 89.4375 26.2188C90 26.8633 90.75 27.1855 91.6875 27.1855Z"
                fill="currentColor" />
              <path
                d="M48.5156 13.2812C48.4219 12.9766 48.3691 12.7246 48.3574 12.5254C48.3574 12.0098 48.6504 11.7461 49.2363 11.7344H52.5059C53.0566 11.7344 53.5488 11.875 53.9824 12.1562C54.416 12.4258 54.7148 12.8008 54.8789 13.2812L57.7617 22.7559L60.6094 13.2812C60.9258 12.25 61.5938 11.7344 62.6133 11.7344H65.7246C66.7559 11.7344 67.4238 12.25 67.7285 13.2812L70.5762 22.7559L73.459 13.2812C73.623 12.8008 73.9219 12.4258 74.3555 12.1562C74.7891 11.875 75.2812 11.7344 75.832 11.7344H79.1016C79.6758 11.7344 79.9688 11.998 79.9805 12.5254C79.9805 12.7363 79.9277 12.9883 79.8223 13.2812L74.4961 29.4531C74.332 29.9336 74.0391 30.3145 73.6172 30.5957C73.1953 30.8652 72.7441 31 72.2637 31H69.7852C69.3047 31 68.8477 30.8594 68.4141 30.5781C67.9805 30.2852 67.6934 29.9102 67.5527 29.4531L64.1777 18.9766L60.7852 29.4531C60.6445 29.9102 60.3574 30.2852 59.9238 30.5781C59.4902 30.8594 59.0332 31 58.5527 31H56.0742C55.5938 31 55.1426 30.8652 54.7207 30.5957C54.2988 30.3145 54.0059 29.9336 53.8418 29.4531L48.5156 13.2812Z"
                fill="currentColor" />
              <path
                d="M28.2656 29.7344C26.7188 28.6562 25.9453 27.1328 25.9453 25.1641C25.9453 23.1953 26.7188 21.6836 28.2656 20.6289C29.8242 19.5742 31.8281 19.0469 34.2773 19.0469H40.0957C40.0957 17.6758 39.8086 16.7207 39.2344 16.1816C38.6602 15.6426 37.6523 15.373 36.2109 15.373C34.7812 15.373 33.7734 15.7305 33.1875 16.4453C32.6133 17.1484 31.9043 17.5 31.0605 17.5H28.4414C28.125 17.5 27.8613 17.4004 27.6504 17.2012C27.4512 16.9902 27.3516 16.7324 27.3516 16.4277C27.3516 13.0645 30.5449 11.3828 36.9316 11.3828C39.7207 11.3828 41.959 12.0098 43.6465 13.2637C45.334 14.5059 46.1777 16.4336 46.1777 19.0469V29.9277C46.1777 30.2441 46.0781 30.502 45.8789 30.7012C45.6797 30.9004 45.4219 31 45.1055 31H41.7129C41.3965 31 41.1387 30.9004 40.9395 30.7012C40.7402 30.4902 40.6406 30.2324 40.6406 29.9277V29.3828C38.7891 30.707 36.6504 31.3633 34.2246 31.3516C31.8105 31.3516 29.8242 30.8125 28.2656 29.7344ZM34.6992 23.0371C33.8789 23.0371 33.2285 23.2363 32.748 23.6348C32.2793 24.0332 32.0449 24.5488 32.0449 25.1816C32.0449 25.8145 32.291 26.3359 32.7832 26.7461C33.2754 27.1562 33.9727 27.3613 34.875 27.3613C36.6797 27.3613 38.4199 26.834 40.0957 25.7793V23.0371H34.6992Z"
                fill="currentColor" />
              <path
                d="M3.19922 35.8516V12.8242C3.19922 12.5078 3.29883 12.25 3.49805 12.0508C3.70898 11.8398 3.9668 11.7344 4.27148 11.7344H7.66406C7.96875 11.7344 8.2207 11.8398 8.41992 12.0508C8.63086 12.25 8.73633 12.5078 8.73633 12.8242V13.3516C10.5879 12.0391 12.7383 11.3828 15.1875 11.3828C17.6367 11.3828 19.6816 12.25 21.3223 13.9844C22.9629 15.707 23.7832 18.1797 23.7832 21.4023C23.7832 24.6133 22.9336 27.0742 21.2344 28.7852C19.5352 30.4961 17.2441 31.3516 14.3613 31.3516C12.873 31.3516 11.1797 31.0527 9.28125 30.4551V35.8516C9.28125 36.168 9.17578 36.4258 8.96484 36.625C8.76562 36.8359 8.51367 36.9414 8.20898 36.9414H4.27148C3.9668 36.9414 3.70898 36.8359 3.49805 36.625C3.29883 36.4258 3.19922 36.168 3.19922 35.8516ZM9.28125 26.3945C10.793 26.875 12.0645 27.1152 13.0957 27.1152C14.7012 27.1152 15.8379 26.6582 16.5059 25.7441C17.1855 24.8301 17.5254 23.3711 17.5254 21.3672C17.5254 19.3633 17.2031 17.9102 16.5586 17.0078C15.9258 16.0938 14.9707 15.6367 13.6934 15.6367C12.4277 15.6367 10.957 16.1641 9.28125 17.2188V26.3945Z"
                fill="currentColor" />
            </g>
            <defs>
              <clipPath id="clip0_6996_491">
                <rect width="193" height="41" fill="white" />
              </clipPath>
            </defs>
        </symbol>
</svg>
